<svg width="16" height="16" viewBox="0 0 16 16" fill="none" xmlns="http://www.w3.org/2000/svg">
<g clip-path="url(#clip0_1746_1538)">
<path d="M11.2563 1.73749C11.2563 1.46077 11.4806 1.23649 11.7573 1.23649L7.99975 0.985962L4.24219 1.23646C4.51887 1.23646 4.74319 1.46077 4.74319 1.73746C4.74319 2.01415 4.51887 2.23846 4.24219 2.23846L7.99975 2.48899L11.7573 2.23849C11.4806 2.23849 11.2563 2.01418 11.2563 1.73749Z" fill="#F6D190"/>
<path d="M4.74319 1.73749C4.74319 2.01418 4.51884 2.23849 4.24219 2.23849L6.74722 2.40549V1.06946L4.24219 1.23646C4.51888 1.23649 4.74319 1.46077 4.74319 1.73749Z" fill="#ECBD83"/>
<path d="M12.0079 2.23846H3.9918C3.16171 2.23846 2.48877 2.9114 2.48877 3.7415C2.48877 4.57159 3.16171 5.24453 3.9918 5.24453C4.36174 5.24453 4.68127 5.04175 4.85483 4.74353H11.1449C11.3185 5.04178 11.638 5.24453 12.0079 5.24453C12.838 5.24453 13.511 4.57159 13.511 3.7415C13.511 2.9114 12.838 2.23846 12.0079 2.23846Z" fill="#FFE09F"/>
<path d="M4.99365 5.49506H11.0057V12.7597H4.99365V5.49506Z" fill="#F6D190"/>
<path d="M7.26643 6.51562H11.0058V5.49506H4.99365V12.7597H6.7654V7.01662C6.76543 6.73993 6.98975 6.51562 7.26643 6.51562Z" fill="#ECBD83"/>
<path d="M12.2584 0.234436H3.74123C3.46455 0.234436 3.24023 0.458749 3.24023 0.735436C3.24023 1.01212 3.46455 1.23644 3.74123 1.23644H12.2584C12.535 1.23644 12.7594 1.01212 12.7594 0.735436C12.7594 0.458749 12.535 0.234436 12.2584 0.234436Z" fill="#FFE09F"/>
<path d="M11.2564 13.0101H4.7432L3.9917 15.0141H12.0079L11.2564 13.0101Z" fill="#F6D190"/>
<path d="M6.26326 15.0142L6.51711 14.3373C6.59045 14.1417 6.77739 14.0122 6.9862 14.0122H11.6321L11.2563 13.0101H4.7432L3.9917 15.0142H6.26326Z" fill="#ECBD83"/>
<path d="M12.2584 14.7637H3.74123C3.46455 14.7637 3.24023 14.988 3.24023 15.2647C3.24023 15.5414 3.46455 15.7657 3.74123 15.7657H12.2584C12.535 15.7657 12.7594 15.5414 12.7594 15.2647C12.7594 14.988 12.5351 14.7637 12.2584 14.7637Z" fill="#FFE09F"/>
<path d="M11.2563 12.2586H4.74319C4.4665 12.2586 4.24219 12.4829 4.24219 12.7596C4.24219 13.0363 4.4665 13.2606 4.74319 13.2606H11.2563C11.533 13.2606 11.7573 13.0363 11.7573 12.7596C11.7573 12.4829 11.533 12.2586 11.2563 12.2586Z" fill="#FFE09F"/>
<path d="M11.1448 4.74347H4.85472C4.72197 4.97153 4.50387 5.14125 4.24219 5.20906V5.2445C4.24219 5.52119 4.46653 5.7455 4.74319 5.7455H11.2563C11.533 5.7455 11.7573 5.52119 11.7573 5.2445V5.20906C11.4956 5.14128 11.2775 4.97156 11.1448 4.74347Z" fill="#F6D190"/>
<path d="M5.49477 0.234436H3.74123C3.46455 0.234436 3.24023 0.458749 3.24023 0.735436C3.24023 1.01212 3.46458 1.23644 3.74123 1.23644H5.49477V0.234436Z" fill="#F6D190"/>
<path d="M5.74522 12.2586H4.74319C4.4665 12.2586 4.24219 12.4829 4.24219 12.7596C4.24219 13.0363 4.46653 13.2606 4.74319 13.2606H5.74522V12.2586Z" fill="#F6D190"/>
<path d="M5.74527 14.7637H3.74123C3.46455 14.7637 3.24023 14.988 3.24023 15.2647C3.24023 15.5414 3.46458 15.7657 3.74123 15.7657H5.74527V14.7637Z" fill="#F6D190"/>
<path d="M5.74561 3.47485H10.2547C10.3841 3.47485 10.489 3.36992 10.489 3.24048C10.489 3.11104 10.3841 3.0061 10.2547 3.0061H5.74561C5.61617 3.0061 5.51123 3.11104 5.51123 3.24048C5.51123 3.36992 5.61617 3.47485 5.74561 3.47485Z" fill="black"/>
<path d="M11.2564 5.9799C11.5805 5.9799 11.8561 5.76912 11.9538 5.47753C11.9717 5.47831 11.9898 5.4789 12.008 5.4789C12.966 5.4789 13.7454 4.6995 13.7454 3.7415C13.7454 2.7835 12.966 2.00409 12.008 2.00409H11.7575C11.6104 2.00409 11.4908 1.88447 11.4908 1.73747C11.4908 1.59047 11.6104 1.47084 11.7575 1.47084H12.2585C12.664 1.47084 12.9938 1.14094 12.9938 0.735467C12.9938 0.329999 12.664 6.10352e-05 12.2585 6.10352e-05H3.74133C3.33583 6.10352e-05 3.00593 0.329967 3.00593 0.735436C3.00593 1.1409 3.33583 1.47081 3.7413 1.47081H4.2423C4.38933 1.47081 4.50896 1.59044 4.50896 1.73744C4.50896 1.88444 4.38933 2.00406 4.2423 2.00406H3.9918C3.0338 2.00406 2.25439 2.78347 2.25439 3.74147C2.25439 4.69947 3.03377 5.47887 3.9918 5.47887C4.00999 5.47887 4.02799 5.47828 4.04599 5.4775C4.14368 5.76909 4.41927 5.97987 4.74333 5.97987H4.75949V12.0242H4.74333C4.33783 12.0242 4.00793 12.3541 4.00793 12.7596C4.00793 13.0433 4.16952 13.2898 4.40539 13.4124L3.84696 14.5292H3.7413C3.3358 14.5292 3.00593 14.8592 3.00593 15.2646C3.00593 15.6701 3.33583 16.0001 3.74133 16.0001H12.2585C12.664 16.0001 12.9939 15.6702 12.9939 15.2647C12.9939 14.8592 12.664 14.5293 12.2585 14.5293H12.1529L11.5944 13.4124C11.8303 13.2898 11.9919 13.0433 11.9919 12.7597C11.9919 12.3542 11.662 12.0243 11.2565 12.0243H11.2403V5.9799H11.2564ZM3.74133 1.00206C3.5943 1.00206 3.47471 0.882436 3.47471 0.735436C3.47471 0.588436 3.5943 0.468811 3.74133 0.468811H12.2585C12.4055 0.468811 12.5251 0.588436 12.5251 0.735436C12.5251 0.882436 12.4055 1.00206 12.2585 1.00206H6.24633C6.11689 1.00206 6.01196 1.107 6.01196 1.23644C6.01196 1.36587 6.11689 1.47081 6.24633 1.47081H11.0723C11.04 1.55353 11.0221 1.6434 11.0221 1.73744C11.0221 1.83147 11.04 1.92134 11.0723 2.00406H4.92749C4.9598 1.92134 4.97774 1.83147 4.97774 1.73744C4.97774 1.6434 4.9598 1.55353 4.92749 1.47081H5.24443C5.37386 1.47081 5.4788 1.36587 5.4788 1.23644C5.4788 1.107 5.37386 1.00206 5.24443 1.00206H3.74133ZM3.99183 5.01015C3.2923 5.01015 2.72318 4.44103 2.72318 3.7415C2.72318 3.04197 3.29227 2.47284 3.99183 2.47284H12.008C12.7075 2.47284 13.2766 3.04197 13.2766 3.7415C13.2766 4.44103 12.7076 5.01015 12.008 5.01015C11.5847 5.01015 11.2403 4.66578 11.2403 4.24253C11.2403 3.81928 11.5847 3.47487 12.008 3.47487C12.155 3.47487 12.2746 3.5945 12.2746 3.7415C12.2746 3.87094 12.3795 3.97587 12.509 3.97587C12.6384 3.97587 12.7434 3.87094 12.7434 3.7415C12.7434 3.336 12.4135 3.00612 12.008 3.00612C11.3262 3.00612 10.7716 3.56078 10.7716 4.24253C10.7716 4.33409 10.7819 4.42322 10.8009 4.50915H5.19896C5.21793 4.42322 5.22824 4.33406 5.22824 4.24253C5.22824 3.56078 4.67358 3.00612 3.99183 3.00612C3.58633 3.00612 3.25646 3.33603 3.25646 3.7415C3.25646 3.87094 3.36139 3.97587 3.49083 3.97587C3.62027 3.97587 3.72521 3.87094 3.72521 3.7415C3.72521 3.59447 3.84483 3.47487 3.99183 3.47487C4.41511 3.47487 4.75949 3.81925 4.75949 4.24253C4.75949 4.66581 4.41511 5.01015 3.99183 5.01015ZM12.2585 14.9981C12.4055 14.9981 12.5251 15.1177 12.5251 15.2647C12.5251 15.4117 12.4055 15.5313 12.2585 15.5313H3.74133C3.5943 15.5313 3.47471 15.4117 3.47471 15.2647C3.47471 15.1177 3.59433 14.9981 3.74133 14.9981H12.2585ZM11.6288 14.5293H4.37105L4.88821 13.495H11.1116L11.6288 14.5293ZM11.2564 12.493C11.4035 12.493 11.5231 12.6126 11.5231 12.7596C11.5231 12.9066 11.4035 13.0262 11.2564 13.0262H4.74336C4.59633 13.0262 4.47671 12.9066 4.47671 12.7596C4.47671 12.6126 4.59633 12.493 4.74336 12.493H9.00196C9.13139 12.493 9.23633 12.3881 9.23633 12.2586C9.23633 12.1292 9.13139 12.0242 9.00196 12.0242H5.22824V5.9799H10.7716V12.0242H10.004C9.87458 12.0242 9.76964 12.1292 9.76964 12.2586C9.76964 12.3881 9.87458 12.493 10.004 12.493H11.2564ZM4.74336 5.51115C4.64021 5.51115 4.55077 5.45219 4.50643 5.36628C4.69683 5.27875 4.86136 5.14444 4.98505 4.97787H11.0148C11.1385 5.14444 11.303 5.27875 11.4934 5.36628C11.4491 5.45219 11.3596 5.51115 11.2565 5.51115H4.74336Z" fill="black"/>
<path d="M8 11.491C8.12944 11.491 8.23438 11.3861 8.23438 11.2567V6.74756C8.23438 6.61812 8.12944 6.51318 8 6.51318C7.87056 6.51318 7.76562 6.61812 7.76562 6.74756V11.2567C7.76562 11.3861 7.87056 11.491 8 11.491Z" fill="black"/>
<path d="M9.00195 11.491C9.13139 11.491 9.23633 11.3861 9.23633 11.2567V6.74756C9.23633 6.61812 9.13139 6.51318 9.00195 6.51318C8.87252 6.51318 8.76758 6.61812 8.76758 6.74756V11.2567C8.76758 11.3861 8.87252 11.491 9.00195 11.491Z" fill="black"/>
<path d="M10.0039 11.491C10.1333 11.491 10.2383 11.3861 10.2383 11.2567V6.74756C10.2383 6.61812 10.1333 6.51318 10.0039 6.51318C9.87447 6.51318 9.76953 6.61812 9.76953 6.74756V11.2567C9.76953 11.3861 9.87447 11.491 10.0039 11.491Z" fill="black"/>
<path d="M6.99805 11.491C7.12748 11.491 7.23242 11.3861 7.23242 11.2567V6.74756C7.23242 6.61812 7.12748 6.51318 6.99805 6.51318C6.86861 6.51318 6.76367 6.61812 6.76367 6.74756V11.2567C6.76367 11.3861 6.86858 11.491 6.99805 11.491Z" fill="black"/>
<path d="M5.99609 11.491C6.12553 11.491 6.23047 11.3861 6.23047 11.2567V6.74756C6.23047 6.61812 6.12553 6.51318 5.99609 6.51318C5.86666 6.51318 5.76172 6.61812 5.76172 6.74756V11.2567C5.76172 11.3861 5.86666 11.491 5.99609 11.491Z" fill="black"/>
</g>
<defs>
<clipPath id="clip0_1746_1538">
<rect width="16" height="16" fill="white"/>
</clipPath>
</defs>
</svg>
