<svg width="116" height="116" viewBox="0 0 116 116" fill="none" xmlns="http://www.w3.org/2000/svg">
<g clip-path="url(#clip0_1734_1353)">
<path d="M82.8944 101.329L69.3569 96.816C67.0579 96.0498 65.5071 93.8981 65.5071 91.4748V82.396H46.74V91.4748C46.74 93.8981 45.1894 96.0498 42.8903 96.816L29.3525 101.329C26.2873 102.35 24.2197 105.219 24.2197 108.45V108.67H88.0272V108.45C88.0272 105.219 85.9596 102.35 82.8944 101.329Z" fill="#F4AA73"/>
<path d="M65.5065 91.4748V82.396H46.7397V91.4748C46.7397 93.8981 45.1891 96.0496 42.8901 96.816L44.6668 102.157C48.1344 101.003 50.7453 98.2864 51.8251 94.9437C52.1164 94.0415 52.9966 93.4507 53.94 93.5458C57.9409 93.9489 61.8822 93.2502 65.5144 91.5711C65.5138 91.5387 65.5065 91.5074 65.5065 91.4748Z" fill="#E29A6C"/>
<path d="M39.2329 56.1223V71.1359C39.2329 80.4641 46.7949 88.0261 56.1231 88.0261C65.4514 88.0261 73.0134 80.4641 73.0134 71.1359V56.1223H39.2329Z" fill="#FBBD80"/>
<path d="M46.7398 71.1358V68.937C46.7398 67.9415 47.1352 66.9868 47.8391 66.2831L56.1231 57.9991L39.2329 56.1224V70.0823C39.2329 77.8052 44.0021 84.9627 51.3667 87.2872C54.3793 88.2381 57.2331 88.1939 59.8764 87.5933C52.3575 85.8844 46.7398 79.1722 46.7398 71.1358Z" fill="#F4AA73"/>
<path d="M63.6302 46.7389H46.74C41.5576 46.7389 37.3564 50.94 37.3564 56.1224V63.3756C37.3564 64.9667 39.2122 65.8361 40.4345 64.8174L48.6166 57.999C48.6166 57.999 57.2146 64.8775 72.7645 67.1118C73.8856 67.2729 74.8902 66.3785 74.8902 65.2459V57.9988C74.8904 51.7801 69.8491 46.7389 63.6302 46.7389Z" fill="#845252"/>
<path d="M113.092 44.0974L105.578 41.238L105.648 33.1984C105.663 31.419 103.425 30.6192 102.309 32.0051L97.2677 38.2678L89.6432 35.7169C87.9557 35.1523 86.5032 37.0339 87.4768 38.5233L91.8753 45.2534L87.093 51.7163C86.0345 53.1466 87.3753 55.1095 89.0926 54.6439L96.8524 52.5405L101.521 59.0859C102.555 60.5345 104.835 59.866 104.923 58.0888L105.321 50.0587L112.989 47.6411C114.686 47.1062 114.755 44.7302 113.092 44.0974Z" fill="#FFE077"/>
<path d="M40.6871 49.0068C38.666 50.728 37.3564 53.2594 37.3564 56.1222V63.3754C37.3564 64.9665 39.2122 65.8356 40.4345 64.8172L48.6166 57.9988C45.0566 55.6643 42.4512 52.1037 40.6871 49.0068Z" fill="#7A4646"/>
<path d="M82.8944 101.329L70.3293 97.1403C67.3248 101.813 62.0917 104.916 56.1236 104.916C50.1555 104.916 44.9223 101.813 41.9179 97.1403L29.3525 101.329C26.2871 102.351 24.2197 105.219 24.2197 108.45L29.8498 114.3H88.0272V108.45C88.0272 105.219 85.9596 102.351 82.8944 101.329Z" fill="#98DB7C"/>
<path d="M42.4022 23.265C42.4022 23.265 50.7803 12.2117 48.081 5.88199C46.5902 2.38613 42.5479 0.760545 39.052 2.25133C37.1505 3.06219 35.8298 4.63658 35.2356 6.45859C33.5094 5.62597 31.4588 5.48913 29.5575 6.3C26.0616 7.79078 24.436 11.8331 25.9268 15.329C28.6258 21.6587 42.4022 23.265 42.4022 23.265Z" fill="#FF7E92"/>
<path d="M20.4661 56.1222H1.69922V42.9855L11.0828 35.4788L20.4661 42.9855V56.1222Z" fill="#FFF4D6"/>
<path d="M20.4661 42.9855L11.0825 35.4788L1.69922 42.9855V50.4922L9.9103 43.9232C10.5956 43.3749 11.5696 43.3749 12.255 43.9232L20.4661 50.4922V42.9855Z" fill="#FF7E92"/>
<path d="M29.8498 108.45C29.8498 107.641 30.3648 106.926 31.1346 106.67L46.035 101.55C44.4157 100.337 43.0151 98.8467 41.9179 97.1403L29.3527 101.329C26.2873 102.351 24.2197 105.219 24.2197 108.45V114.3H29.8498V108.45Z" fill="#77CC7D"/>
<path d="M42.4016 23.265C42.4016 23.265 43.5664 21.7271 44.8868 19.4726L44.566 19.4057C44.4414 19.3792 32.166 16.7565 29.8439 11.0789C29.307 9.76663 29.2392 8.36194 29.6477 7.01752L29.8972 6.19781C29.7846 6.23905 29.6688 6.25242 29.5569 6.29999C26.061 7.79078 24.4357 11.8329 25.9262 15.3287C28.6255 21.6587 42.4016 23.265 42.4016 23.265Z" fill="#FF5F7A"/>
<path d="M101.435 49.2717C100.447 47.8853 98.8933 47.0468 97.2493 46.9268C97.7351 45.3515 97.5205 43.5976 96.5878 42.1728L93.1316 36.8844L89.6432 35.7173C87.9557 35.1528 86.5032 37.0344 87.4768 38.5238L91.875 45.2538L87.093 51.7167C86.0345 53.147 87.3753 55.11 89.0924 54.6444L96.8522 52.541L101.521 59.0864C102.554 60.535 104.835 59.8664 104.923 58.0893L105.105 54.4151L101.435 49.2717Z" fill="#FFD05B"/>
<path d="M21.5277 41.6585L12.1442 34.1518C11.5236 33.6554 10.6419 33.6554 10.0213 34.1518L0.637773 41.6585C0.234719 41.9811 0 42.4693 0 42.9855V56.1222C0 57.0606 0.760797 57.8214 1.69922 57.8214H20.4661C21.4045 57.8214 22.1653 57.0606 22.1653 56.1222V42.9855C22.1653 42.4693 21.9308 41.9811 21.5277 41.6585ZM18.7669 54.423H3.39844V43.802L11.0828 37.6547L18.7671 43.802L18.7669 54.423Z" fill="black"/>
<path d="M9.3833 46.7387V48.6156C9.3833 49.554 10.1441 50.3148 11.0825 50.3148C12.0209 50.3148 12.7817 49.554 12.7817 48.6156V46.7387C12.7817 45.8003 12.0209 45.0395 11.0825 45.0395C10.1441 45.0395 9.3833 45.8003 9.3833 46.7387Z" fill="black"/>
<path d="M69.6562 26.9765L69.0886 28.1057C68.6808 28.9168 68.9348 29.9357 69.7191 30.3929C69.991 30.5515 70.2862 30.626 70.5767 30.626C71.1986 30.626 71.7978 30.2832 72.0962 29.6896L72.763 28.3633C73.3274 28.499 73.8872 28.5638 74.4348 28.5638C76.9102 28.5638 79.136 27.2695 80.4127 25.5268C82.4157 22.7928 82.1599 19.4123 79.7611 16.9147C79.4926 16.6351 79.2198 16.3476 78.9495 16.0558L81.7951 10.3946C82.0068 10.6004 82.2184 10.887 82.4066 11.1781C82.8412 11.8503 83.6854 12.1281 84.4326 11.8412C85.4467 11.452 85.8366 10.222 85.2305 9.32051C84.759 8.61885 84.1305 7.84967 83.3632 7.27488L83.8641 6.27823C84.2819 5.4472 84.0057 4.40071 83.1876 3.95823C82.3407 3.50035 81.2888 3.83498 80.8594 4.68889L80.272 5.8575C80.1145 5.82125 79.9543 5.78749 79.7887 5.75849C77.5655 5.36949 75.2944 6.29432 73.8609 8.17207C72.5489 9.89054 72.2399 12.0334 73.0544 13.7641C73.4576 14.6207 74.0352 15.5104 74.8891 16.5664L71.1888 23.9277C70.3796 23.4039 69.8974 22.8486 69.2479 21.7375C68.7814 20.9398 67.7612 20.5997 66.9462 21.0354C66.0937 21.4912 65.7951 22.5583 66.2761 23.3875C67.3613 25.2578 68.312 26.1727 69.6562 26.9765ZM76.562 10.2338C76.9956 9.66602 77.7442 9.11819 78.6552 9.0731L76.6021 13.1576C76.417 12.8689 76.2566 12.5871 76.1293 12.3163C75.861 11.7468 76.0309 10.9293 76.562 10.2338ZM77.3253 19.2859C79.1312 21.1838 78.0473 23.0042 77.6708 23.5183C76.9832 24.4567 75.7686 25.2007 74.37 25.1654L77.3253 19.2859Z" fill="black"/>
<path d="M34.8052 23.3586C38.7075 24.5485 42.2133 24.9321 42.3606 24.9479C42.4211 24.9543 42.4813 24.9574 42.5414 24.9574C43.0751 24.9574 43.5826 24.7057 43.905 24.2716C43.9934 24.1527 46.0898 21.3166 47.8624 17.642C50.3743 12.4355 50.9622 8.22919 49.6097 5.14001C47.7122 0.805869 42.6424 -1.17587 38.3083 0.720908C36.5952 1.47106 35.189 2.77039 34.2852 4.40006C32.4745 3.95871 30.5659 4.11051 28.8529 4.86043C26.7533 5.77959 25.1375 7.46137 24.3028 9.59581C23.4682 11.7303 23.5146 14.0623 24.434 16.1616C25.7864 19.251 29.2757 21.6725 34.8052 23.3586ZM27.4679 10.8335C27.972 9.54438 28.9478 8.52893 30.2159 7.97363C30.8682 7.68793 31.5544 7.54565 32.245 7.54565C33.0022 7.54565 33.7641 7.71693 34.4907 8.05881C34.9345 8.26748 35.4466 8.2745 35.8956 8.07785C36.3446 7.88119 36.687 7.50011 36.8347 7.03271C37.2967 5.56867 38.3042 4.43268 39.6715 3.8341C40.9393 3.27903 42.3476 3.2507 43.6368 3.75481C44.9259 4.25891 45.9416 5.23471 46.4967 6.50278C48.2752 10.5653 44.0931 18.028 41.7473 21.4439C37.646 20.8505 29.326 18.8613 27.5474 14.7986C26.9919 13.531 26.9638 12.1227 27.4679 10.8335Z" fill="black"/>
<path d="M113.696 42.5092L107.287 40.0703L107.347 33.2131C107.36 31.6684 106.429 30.3344 104.974 29.8147C103.52 29.2947 101.954 29.7365 100.986 30.9396L100.586 31.436C99.9975 32.1671 100.113 33.2367 100.844 33.8251C101.575 34.4137 102.645 34.2979 103.233 33.567L103.633 33.0704C103.666 33.0289 103.712 32.9721 103.831 33.0147C103.95 33.0573 103.949 33.1302 103.949 33.1835L103.878 41.223C103.872 41.9338 104.309 42.5731 104.973 42.826L112.487 45.6854C112.537 45.7042 112.605 45.7303 112.602 45.8562C112.598 45.9824 112.528 46.0044 112.478 46.0205L104.81 48.4381C104.132 48.6518 103.659 49.2649 103.624 49.9747L103.226 58.0045C103.224 58.0578 103.22 58.1307 103.099 58.1661C102.978 58.2016 102.936 58.142 102.905 58.0988L98.2362 51.5534C97.8232 50.9747 97.0939 50.714 96.4083 50.9002L88.6483 53.0036C88.5973 53.0176 88.5266 53.0367 88.4553 52.9325C88.3841 52.8282 88.4274 52.7696 88.4591 52.7267L93.2414 46.2638C93.6642 45.6927 93.6866 44.9185 93.2981 44.3235L88.8996 37.5935C88.8703 37.5489 88.8305 37.4879 88.9077 37.388C88.985 37.2879 89.0541 37.3112 89.1046 37.328L96.7289 39.8791C97.6191 40.177 98.5817 39.6969 98.8794 38.807C99.1771 37.917 98.697 36.9541 97.8073 36.6564L90.1828 34.1053C88.7176 33.6148 87.1616 34.0888 86.2177 35.3113C85.2737 36.5341 85.21 38.1597 86.0549 39.4527L89.8065 45.1929L85.7277 50.7053C84.8088 51.9469 84.7782 53.5736 85.6493 54.8492C86.5204 56.1245 88.0463 56.6877 89.5376 56.2838L96.1561 54.4899L100.138 60.0726C100.828 61.0391 101.895 61.577 103.026 61.577C103.366 61.577 103.712 61.5282 104.055 61.4276C105.537 60.9933 106.544 59.7157 106.621 58.1729L106.96 51.3241L113.5 49.2619C114.973 48.7975 115.955 47.4995 115.999 45.9555C116.043 44.4112 115.14 43.0586 113.696 42.5092Z" fill="black"/>
<path d="M32.4017 40.4335C32.7334 40.7651 33.1684 40.9312 33.6032 40.9312C34.038 40.9312 34.473 40.7654 34.8047 40.4335C35.4683 39.7699 35.4683 38.6939 34.8047 38.0305L25.4211 28.647C24.7575 27.9834 23.6816 27.9834 23.0182 28.647C22.3546 29.3106 22.3546 30.3865 23.0182 31.0499L32.4017 40.4335Z" fill="black"/>
<path d="M56.1235 37.178C57.062 37.178 57.8228 36.4172 57.8228 35.4788V29.8487C57.8228 28.9103 57.062 28.1495 56.1235 28.1495C55.1851 28.1495 54.4243 28.9103 54.4243 29.8487V35.4788C54.4243 36.4172 55.1851 37.178 56.1235 37.178Z" fill="black"/>
<path d="M75.5655 36.1539L73.6886 38.0305C73.025 38.6941 73.025 39.7698 73.6886 40.4335C74.0203 40.7654 74.4553 40.9312 74.8901 40.9312C75.3249 40.9312 75.7599 40.7654 76.0915 40.4335L77.9684 38.5568C78.632 37.8932 78.632 36.8175 77.9684 36.1539C77.305 35.4901 76.2291 35.4903 75.5655 36.1539Z" fill="black"/>
<path d="M24.2197 69.0816C24.6544 69.0816 25.0894 68.9158 25.4211 68.5839L29.1746 64.8306C29.8382 64.167 29.8382 63.0913 29.1746 62.4277C28.511 61.7639 27.435 61.7641 26.7717 62.4277L23.0182 66.181C22.3546 66.8446 22.3546 67.9203 23.0182 68.5839C23.3499 68.9158 23.7847 69.0816 24.2197 69.0816Z" fill="black"/>
<path d="M90.8462 69.7221L85.2161 65.9686C84.4354 65.448 83.3803 65.6589 82.8599 66.4399C82.3392 67.2206 82.5502 68.2757 83.3311 68.7961L88.9612 72.5496C89.251 72.7428 89.5783 72.8353 89.9021 72.8353C90.4511 72.8353 90.9901 72.5695 91.3174 72.0783C91.8381 71.2976 91.6271 70.2425 90.8462 69.7221Z" fill="black"/>
<path d="M83.4316 99.7165L69.894 95.2041C68.2864 94.6682 67.2063 93.1698 67.2063 91.4751V86.0507C71.7589 82.6591 74.713 77.2363 74.713 71.1359V68.3661C74.9276 68.2497 75.1331 68.1131 75.3229 67.9515C76.1279 67.2673 76.5896 66.2698 76.5896 65.2142V57.9989C76.5896 50.8531 70.7761 45.0395 63.6303 45.0395H46.74C40.629 45.0395 35.6573 50.0112 35.6573 56.1222V63.3756C35.6573 64.7094 36.3716 65.8957 37.5339 66.5206V71.1359C37.5339 77.2363 40.4883 82.6591 45.0406 86.0505V91.4748C45.0406 93.1695 43.9603 94.668 42.3529 95.2038L28.8153 99.7163C25.0501 100.971 22.5205 104.481 22.5205 108.45V114.299C22.5205 115.238 23.2813 115.999 24.2197 115.999C25.1581 115.999 25.9189 115.238 25.9189 114.299V108.45C25.9189 105.946 27.5149 103.732 29.8899 102.94L41.2364 99.158C44.742 103.839 50.2563 106.615 56.1236 106.615C62.0056 106.615 67.5036 103.843 71.0099 99.1578L82.357 102.94C84.7321 103.732 86.328 105.946 86.328 108.45V114.299C86.328 115.238 87.0888 115.999 88.0272 115.999C88.9656 115.999 89.7264 115.238 89.7264 114.299V108.45C89.7264 104.481 87.1968 100.972 83.4316 99.7165ZM40.9326 71.1359V66.5224C41.1385 66.41 41.3365 66.2777 41.5225 66.1227L48.7605 60.0912C50.7067 61.2586 55.1428 63.7178 61.1904 65.8418C62.0758 66.1531 63.0457 65.687 63.3568 64.8016C63.6679 63.9162 63.2021 62.9463 62.3167 62.6352C54.6543 59.9441 49.6085 56.6175 49.5594 56.5849C48.9334 56.1676 48.1071 56.2115 47.5292 56.6934L39.3471 63.5118C39.3167 63.5372 39.2601 63.5843 39.1581 63.5363C39.0559 63.4885 39.0559 63.4151 39.0559 63.3756V56.1222C39.0559 51.8851 42.5031 48.4379 46.7403 48.4379H63.6305C68.9024 48.4379 73.1914 52.727 73.1914 57.9989V65.2142C73.1914 65.2917 73.1482 65.3402 73.1223 65.3619C73.0723 65.4045 73.0342 65.3984 73.0177 65.3957C71.9005 65.2133 70.7613 64.9926 69.6317 64.7396C68.7159 64.5347 67.8074 65.1109 67.6024 66.0267C67.3973 66.9424 67.9737 67.8509 68.8895 68.056C69.6965 68.2368 70.5083 68.4004 71.315 68.5481V71.1356C71.315 79.5119 64.5003 86.3267 56.124 86.3267C47.7471 86.3269 40.9326 79.5121 40.9326 71.1359ZM56.1236 103.217C51.6721 103.217 47.4691 101.261 44.597 97.9187C46.9362 96.6556 48.4393 94.2029 48.4393 91.4751V88.056C50.7833 89.1247 53.3838 89.7253 56.1236 89.7253C58.8634 89.7253 61.4639 89.1247 63.8079 88.056V91.4751C63.8079 94.2033 65.3114 96.6561 67.6509 97.9192C64.7796 101.264 60.5866 103.217 56.1236 103.217Z" fill="black"/>
</g>
<defs>
<clipPath id="clip0_1734_1353">
<rect width="116" height="116" fill="white"/>
</clipPath>
</defs>
</svg>
