<svg width="120" height="120" viewBox="0 0 120 120" fill="none" xmlns="http://www.w3.org/2000/svg">
<path d="M62.6925 73.125H36.6825C33.5569 73.125 30.5081 74.1019 27.9637 75.9188C22.1812 80.0494 18.75 86.7169 18.75 93.8231V101.25C18.75 108.499 24.6263 114.375 31.875 114.375H69.375C75.5887 114.375 80.625 109.339 80.625 103.125V93.8231C80.625 86.7169 77.1937 80.0494 71.4112 75.9206C68.8669 74.1019 65.82 73.125 62.6925 73.125Z" fill="#769FB6"/>
<path d="M73.125 77.3063C72.5756 76.8225 72.0131 76.35 71.4112 75.9206C68.8669 74.1038 65.8181 73.1269 62.6925 73.1269H36.6825C33.6187 73.125 30.6375 74.0738 28.125 75.8213V103.125L33.75 114.375H69.375L73.125 103.125V77.3063Z" fill="#608EA9"/>
<path d="M62.222 73.125H60.0001V56.25H41.2501V73.125H39.0282C37.9389 73.125 36.8607 73.2225 35.792 73.3688C36.8232 80.6475 43.0614 86.25 50.6251 86.25C58.1889 86.25 64.427 80.6475 65.4582 73.3688C64.3895 73.2225 63.3114 73.125 62.222 73.125Z" fill="#F29654"/>
<path d="M29.7113 37.5L26.6307 31.9556C23.5163 26.3494 24.2551 19.3931 28.4795 14.5669C31.3651 11.2669 35.5351 9.375 39.917 9.375H47.8032C52.1888 9.375 56.4751 10.6725 60.1238 13.1044L62.4545 14.6569C63.692 15.4819 65.2763 15.5812 66.6076 14.9156C69.212 13.6125 72.3732 14.3081 74.1938 16.5825C76.3838 19.32 77.0907 22.9612 76.0838 26.3194L72.7276 37.5L71.2501 43.125H33.7501L29.7113 37.5Z" fill="#7B828E"/>
<path d="M74.5931 26.25C72.4874 26.25 70.5056 25.2581 69.2437 23.5744C67.1868 20.8331 63.3918 20.0887 60.4537 21.8531C57.7856 23.4544 54.5512 23.8087 51.5999 22.8244L43.7118 20.1956C40.9349 19.2694 38.6399 17.28 37.3293 14.6606L37.3068 14.6156C36.5512 13.1044 36.1874 11.4825 36.1593 9.86624C33.2099 10.62 30.5193 12.2306 28.4774 14.565C24.2549 19.3912 23.5143 26.3494 26.6287 31.9537L29.7112 37.5L33.7499 43.125H71.2499L72.7274 37.5L76.0818 26.3194C76.0893 26.2969 76.0912 26.2725 76.0987 26.25H74.5931Z" fill="#656B76"/>
<path d="M50.625 69.375C40.2694 69.375 31.875 60.9807 31.875 50.625V37.3013C31.875 33.8719 33.435 30.6282 36.1125 28.485C39.2869 25.9444 43.5844 25.3088 47.3587 26.8182L52.6144 28.92C57.0956 30.7125 62.2125 29.6625 65.625 26.25L67.1269 28.5019C68.5931 30.7013 69.375 33.285 69.375 35.9288V50.625C69.375 60.9807 60.9806 69.375 50.625 69.375Z" fill="#F6B98D"/>
<path d="M63.8814 59.0044C63.0958 54.6413 57.4783 52.365 53.537 56.7C51.6845 58.7382 51.0133 61.5975 51.5008 64.3069L51.9602 66.8644C52.1327 67.8207 52.6689 68.6044 53.3852 69.1482C59.1095 68.3025 63.9827 64.8788 66.7952 60.0844C66.1164 59.2631 65.0327 58.7982 63.8814 59.0044Z" fill="#F3A268"/>
<path d="M46.7212 64.3088C47.2087 61.5975 46.5375 58.74 44.685 56.7019C40.7437 52.3669 35.1244 54.6432 34.3406 59.0063C34.1756 58.9763 34.0162 58.9782 33.855 58.9744C36.1725 63.6188 40.3481 67.1644 45.42 68.6288C45.84 68.1432 46.14 67.545 46.2619 66.8663L46.7212 64.3088Z" fill="#F3A268"/>
<path d="M31.875 47.8125H30.9375C26.2781 47.8125 22.5 44.0344 22.5 39.375C22.5 36.7856 24.5981 34.6875 27.1875 34.6875C29.7769 34.6875 31.875 36.7856 31.875 39.375V47.8125Z" fill="#F3A268"/>
<path d="M69.375 48.75H70.3125C74.9719 48.75 78.75 44.9719 78.75 40.3125C78.75 37.7231 76.6519 35.625 74.0625 35.625C71.4731 35.625 69.375 37.7231 69.375 40.3125V48.75Z" fill="#F3A268"/>
<path d="M67.1269 28.5019L65.625 26.25C62.2125 29.6625 57.0956 30.7125 52.6144 28.92L47.3587 26.8182C43.5825 25.3088 39.2869 25.9444 36.1125 28.485C33.435 30.6282 31.875 33.8719 31.875 37.3013V50.625C31.875 60.9807 40.2694 69.375 50.625 69.375C57.2437 69.375 63.0506 65.9363 66.3862 60.7575C63.465 62.6457 59.9888 63.75 56.25 63.75C45.8944 63.75 37.5 55.3557 37.5 45V33.1707C40.4756 31.4419 44.1075 31.1419 47.3587 32.4432L52.6144 34.545C57.0956 36.3375 62.2125 35.2875 65.625 31.875L67.1269 34.1269C68.5931 36.3263 69.375 38.91 69.375 41.5538V35.9288C69.375 33.285 68.5931 30.7013 67.1269 28.5019Z" fill="#F3A268"/>
<path d="M73.125 41.25V35.7188C70.9856 36.1538 69.375 38.0438 69.375 40.3125V48.75H70.3125C72.6412 48.75 74.7506 47.8069 76.2787 46.2788C74.4169 45.3619 73.125 43.4644 73.125 41.25Z" fill="#F29654"/>
<path d="M28.1249 40.3125V34.7812C30.2643 35.2163 31.8749 37.1063 31.8749 39.375V47.8125H30.9374C28.6087 47.8125 26.4993 46.8694 24.9712 45.3413C26.8331 44.4244 28.1249 42.5269 28.1249 40.3125Z" fill="#F29654"/>
<path d="M55.412 58.5769C59.3533 54.2419 64.9727 56.5181 65.7564 60.8812C67.6652 60.5381 69.4127 62.0269 69.3752 63.9656L69.2983 67.9237C69.2758 69.0919 68.7152 70.185 67.7795 70.8844C66.6302 71.7431 66.0658 73.1775 66.3189 74.5894L66.9002 77.8219L57.6733 79.4812L56.2539 71.5875C55.0408 71.145 54.0827 70.1025 53.837 68.7412L53.3777 66.1856C52.8864 63.4725 53.5577 60.6131 55.412 58.5769Z" fill="#F9CDAE"/>
<path d="M45.8382 58.5769C41.897 54.2419 36.2776 56.5181 35.4939 60.8812C33.5851 60.5381 31.8376 62.0269 31.8751 63.9656L31.952 67.9237C31.9745 69.0919 32.5351 70.185 33.4707 70.8844C34.6201 71.7431 35.1845 73.1775 34.9314 74.5894L34.3501 77.8219L43.577 79.4812L44.9964 71.5875C46.2095 71.145 47.1676 70.1025 47.4132 68.7412L47.8726 66.1856C48.3639 63.4725 47.6926 60.6131 45.8382 58.5769Z" fill="#F9CDAE"/>
<path d="M59.3308 66.4219L58.9108 62.2181C58.6802 59.91 59.597 57.795 61.1477 56.3344C59.2895 56.0231 57.1839 56.6287 55.412 58.575C53.5595 60.6131 52.8883 63.4725 53.3758 66.1819L53.8352 68.7394C54.0808 70.1025 55.0389 71.145 56.252 71.5856L57.6714 79.4794L66.8983 77.82L66.317 74.5875C66.2252 74.0794 66.2739 73.5769 66.3845 73.0912C62.7208 72.9169 59.6983 70.1081 59.3308 66.4219Z" fill="#F6B98D"/>
<path d="M40.1026 56.3344C41.6551 57.795 42.572 59.9081 42.3395 62.2181L41.9195 66.4219C41.5501 70.1081 38.5295 72.9169 34.8638 73.0912C34.9745 73.5769 35.0232 74.0794 34.9313 74.5875L34.3501 77.82L43.577 79.4794L44.9963 71.5856C46.2095 71.1431 47.1695 70.1006 47.4132 68.7394L47.8726 66.1819C48.3601 63.4706 47.6888 60.6131 45.8363 58.575C44.0682 56.6287 41.9607 56.0231 40.1026 56.3344Z" fill="#F6B98D"/>
<path d="M73.125 103.125L69.375 101.25V76.875H56.25V101.25C56.25 108.499 62.1263 114.375 69.375 114.375L73.125 103.125Z" fill="#769FB6"/>
<path d="M28.125 103.125L31.875 101.25V76.875H45V101.25C45 108.499 39.1237 114.375 31.875 114.375L28.125 103.125Z" fill="#769FB6"/>
<path d="M98.6231 5.66063C98.13 5.62876 97.6406 5.61751 97.155 5.62688C85.2956 5.86313 78.7069 19.6238 85.2881 29.4938L88.6369 34.515C92.7 40.6106 91.8975 48.7275 86.7169 53.9081L80.625 60L83.5031 59.52C101.318 56.5519 114.375 41.1375 114.375 23.0775C114.375 14.0906 107.593 6.24188 98.6231 5.66063Z" fill="#E9F1F2"/>
<path d="M98.985 40.155C101.37 35.3869 99.93 29.5913 95.5912 26.4938C92.1787 24.0563 90.4781 19.8656 91.2281 15.7388L91.9425 11.8088C92.3175 9.74813 93.0638 7.81875 94.0706 6.05063C84.2213 8.37188 79.305 20.5238 85.2863 29.4938L88.635 34.515C92.6981 40.6106 91.8956 48.7275 86.715 53.9081L80.625 60L83.5031 59.52C89.805 58.47 95.4919 55.8375 100.236 52.1081C97.6294 48.8175 96.9713 44.1844 98.985 40.155Z" fill="#D0D8DA"/>
<path d="M14.7937 28.3125C15.5775 28.1719 16.35 28.1138 17.1037 28.1288C25.0106 28.2863 29.4019 37.4606 25.0163 44.04C20.6287 49.6125 21.9225 57.7406 27.8231 61.6763L28.125 61.875L23.7469 61.1456C13.29 59.4019 5.625 50.355 5.625 39.7538C5.625 34.2638 9.39 29.28 14.7937 28.3125Z" fill="#E9F1F2"/>
<path d="M14.115 49.8094C12.27 45.5025 12.0694 40.6706 13.5506 36.225L14.37 33.7669C15.0525 31.7175 16.0894 29.8331 17.3831 28.1531C17.2894 28.1494 17.2013 28.1288 17.1056 28.1269C16.35 28.1119 15.5775 28.1719 14.7937 28.3125C9.39 29.28 5.625 34.2638 5.625 39.7538C5.625 50.355 13.29 59.4038 23.7469 61.1456L28.125 61.875L23.1431 59.3831C19.095 57.36 15.8962 53.9681 14.115 49.8094Z" fill="#D0D8DA"/>
<path d="M41.25 45C42.2855 45 43.125 44.1605 43.125 43.125C43.125 42.0895 42.2855 41.25 41.25 41.25C40.2145 41.25 39.375 42.0895 39.375 43.125C39.375 44.1605 40.2145 45 41.25 45Z" fill="black"/>
<path d="M36.6621 39.5269C37.9446 40.1682 39.3377 40.485 40.7271 40.485C42.4971 40.485 44.2615 39.9713 45.7784 38.9607L47.9158 37.5357C48.7783 36.9619 49.0109 35.7975 48.4352 34.935C47.8615 34.0744 46.6971 33.8382 45.8346 34.4157L43.6971 35.8407C42.1052 36.9019 40.0521 37.0332 38.3384 36.1744C37.4121 35.7094 36.2871 36.0863 35.8221 37.0125C35.359 37.9369 35.7358 39.0638 36.6621 39.5269Z" fill="black"/>
<path d="M60 45C61.0355 45 61.875 44.1605 61.875 43.125C61.875 42.0895 61.0355 41.25 60 41.25C58.9645 41.25 58.125 42.0895 58.125 43.125C58.125 44.1605 58.9645 45 60 45Z" fill="black"/>
<path d="M55.4719 38.9587C56.9906 39.9712 58.7531 40.4831 60.5231 40.4831C61.9125 40.4831 63.3056 40.1662 64.5881 39.525C65.5144 39.0619 65.8894 37.935 65.4263 37.0087C64.9613 36.0825 63.8363 35.7056 62.91 36.1706C61.2 37.0294 59.1413 36.8981 57.5513 35.8369L55.4138 34.4119C54.5475 33.8344 53.3869 34.0706 52.8131 34.9312C52.2375 35.7919 52.47 36.9581 53.3325 37.5319L55.4719 38.9587Z" fill="black"/>
<path d="M47.4245 51.9506L49.2995 53.8256C49.6652 54.1913 50.1452 54.375 50.6252 54.375C51.1052 54.375 51.5852 54.1913 51.9508 53.8256C52.6839 53.0925 52.6839 51.9075 51.9508 51.1744L51.032 50.2556L52.3033 47.715C52.7664 46.7888 52.3914 45.6619 51.4652 45.1988C50.5389 44.7356 49.412 45.1106 48.9489 46.0369L47.0739 49.7869C46.712 50.5088 46.8527 51.3806 47.4245 51.9506Z" fill="black"/>
<path d="M62.4244 45.5494C61.0875 46.8863 58.9125 46.8863 57.5756 45.5494C56.8425 44.8163 55.6575 44.8163 54.9244 45.5494C54.1912 46.2825 54.1912 47.4675 54.9244 48.2007C56.3231 49.6013 58.1625 50.3007 60 50.3007C61.8375 50.3007 63.6769 49.6013 65.0756 48.2007C65.8087 47.4675 65.8087 46.2825 65.0756 45.5494C64.3425 44.8163 63.1575 44.8163 62.4244 45.5494Z" fill="black"/>
<path d="M41.25 50.3007C43.0875 50.3007 44.9269 49.6013 46.3256 48.2007C47.0587 47.4675 47.0587 46.2825 46.3256 45.5494C45.5925 44.8163 44.4075 44.8163 43.6744 45.5494C42.3375 46.8863 40.1625 46.8863 38.8256 45.5494C38.0925 44.8163 36.9075 44.8163 36.1744 45.5494C35.4412 46.2825 35.4412 47.4675 36.1744 48.2007C37.5731 49.6013 39.4125 50.3007 41.25 50.3007Z" fill="black"/>
<path d="M33.75 16.875V20.625C33.75 21.66 34.5881 22.5 35.625 22.5C36.6619 22.5 37.5 21.66 37.5 20.625V16.875C37.5 15.84 36.6619 15 35.625 15C34.5881 15 33.75 15.84 33.75 16.875Z" fill="black"/>
<path d="M16.8752 75H20.6252C21.4333 75 22.1477 74.4844 22.4027 73.7175L23.5952 70.1438L25.4121 71.0513C26.3402 71.5144 27.4634 71.1394 27.9284 70.2131C28.3915 69.2869 28.0165 68.16 27.0902 67.6969L23.3402 65.8219C22.8546 65.5781 22.2865 65.5594 21.784 65.7675C21.2815 65.9756 20.8933 66.3919 20.7246 66.9056L19.2733 71.25H15.0002C13.9633 71.25 13.1252 72.09 13.1252 73.125V79.2731L8.78272 80.7206C7.8021 81.0488 7.2696 82.11 7.59772 83.0925L9.10522 87.6188L6.17647 90.5494C5.6046 91.1194 5.46397 91.9913 5.82397 92.7131L7.69897 96.4631C8.0271 97.1213 8.68897 97.5 9.3771 97.5C9.65835 97.5 9.94522 97.4363 10.2133 97.3031C11.1396 96.84 11.5146 95.7131 11.0515 94.7869L9.78022 92.2463L12.574 89.4525C13.0765 88.95 13.2508 88.2075 13.0258 87.5344L11.7433 83.6888L15.5908 82.4063C16.3596 82.1475 16.8752 81.4331 16.8752 80.625V75Z" fill="black"/>
<path d="M92.1467 87.6188L93.6542 83.0925C93.9823 82.11 93.4517 81.0488 92.4692 80.7207L88.1248 79.2732V73.125C88.1248 72.09 87.2867 71.25 86.2498 71.25H81.9767L80.5292 66.9075C80.3585 66.3919 79.9704 65.9757 79.4698 65.7694C78.9654 65.5594 78.401 65.5782 77.9135 65.8238L74.1635 67.6988C73.2373 68.1619 72.8623 69.2888 73.3254 70.215C73.7885 71.1413 74.9154 71.5163 75.8417 71.0532L77.6585 70.1457L78.851 73.7194C79.1004 74.4844 79.8167 75 80.6248 75H84.3748V80.625C84.3748 81.4332 84.8904 82.1475 85.6573 82.4044L89.5048 83.6869L88.2223 87.5325C87.9973 88.2057 88.1735 88.95 88.6742 89.4507L91.4679 92.2444L90.1967 94.785C89.7335 95.7113 90.1085 96.8382 91.0348 97.3013C91.3048 97.4363 91.5917 97.5 91.8729 97.5C92.561 97.5 93.2229 97.1213 93.5529 96.4632L95.4279 92.7132C95.7879 91.9913 95.6473 91.1194 95.0754 90.5494L92.1467 87.6188Z" fill="black"/>
<path d="M89.4506 99.9244C88.7175 99.1912 87.5325 99.1912 86.7994 99.9244C86.0662 100.657 86.0662 101.842 86.7994 102.576L88.9331 104.709L85.2112 107.19C84.6881 107.539 84.375 108.124 84.375 108.75V114.375C84.375 115.41 85.2131 116.25 86.25 116.25C87.2869 116.25 88.125 115.41 88.125 114.375V109.753L92.9156 106.56C93.3825 106.249 93.6862 105.742 93.7406 105.186C93.795 104.627 93.5981 104.072 93.2006 103.674L89.4506 99.9244Z" fill="black"/>
<path d="M74.2013 78.1725C73.4119 78.8419 73.3125 80.025 73.9819 80.8144C77.0569 84.4463 78.75 89.0644 78.75 93.8212V103.125C78.75 108.294 74.5444 112.5 69.375 112.5C63.1706 112.5 58.125 107.454 58.125 101.25V78.75H67.5V101.25C67.5 101.961 67.9013 102.609 68.5369 102.928L72.2869 104.803C73.215 105.268 74.3381 104.889 74.8031 103.965C75.2663 103.039 74.8913 101.912 73.965 101.449L71.25 100.091V76.875C71.25 75.84 70.4119 75 69.375 75H68.2969L68.1637 74.2594C68.1375 74.115 68.1338 73.9519 68.1506 73.7588C68.1937 73.2094 68.4694 72.7069 68.9006 72.3844C70.3088 71.3325 71.1356 69.72 71.1731 67.9594L71.25 64.0012C71.2781 62.5125 70.6444 61.1044 69.51 60.1388C69.3694 60.0188 69.2025 59.9456 69.0525 59.8425C70.4869 56.9869 71.25 53.8444 71.25 50.625V50.5781C76.4981 50.1019 80.625 45.6825 80.625 40.3125C80.625 37.2769 78.5419 34.7381 75.7369 33.9937L77.8781 26.8594C79.0631 22.9125 78.2325 18.6319 75.6562 15.4125C73.2994 12.4669 69.1369 11.5537 65.7694 13.2412C65.04 13.605 64.1719 13.5506 63.495 13.1006L61.1625 11.5444C57.1931 8.89875 52.5731 7.5 47.8031 7.5C46.7663 7.5 45.9281 8.34 45.9281 9.375C45.9281 10.41 46.7663 11.25 47.8031 11.25C50.745 11.25 53.6156 11.8856 56.2556 13.095C56.2556 13.1063 56.25 13.1156 56.25 13.125V22.5C56.25 23.535 57.0881 24.375 58.125 24.375C59.1619 24.375 60 23.535 60 22.5V15.2756L61.4138 16.2187C63.2025 17.4112 65.5163 17.5575 67.4456 16.5938C69.2513 15.6919 71.4694 16.1812 72.7275 17.7544C74.535 20.0138 75.1144 23.0138 74.2838 25.7812L71.7619 34.1887C71.5481 34.2694 71.3456 34.365 71.1431 34.4662C70.9031 31.9688 70.0912 29.5669 68.6869 27.4613L67.185 25.2094C66.8738 24.7406 66.3675 24.4387 65.8106 24.3844C65.2444 24.3281 64.6969 24.5288 64.2994 24.9244C61.4137 27.81 57.1031 28.6988 53.31 27.18L52.5 26.8556V16.875C52.5 15.84 51.6619 15 50.625 15C49.5881 15 48.75 15.84 48.75 16.875V25.3556L48.0544 25.0781C47.0625 24.6806 46.035 24.4294 45 24.2831V16.875C45 15.84 44.1619 15 43.125 15C42.0881 15 41.25 15.84 41.25 16.875V24.2812C38.9775 24.615 36.7913 25.5413 34.9406 27.0206C32.7544 28.77 31.2375 31.1231 30.5063 33.7444C30.1856 33.555 29.8519 33.3863 29.4994 33.2531L28.2712 31.0444C25.5506 26.1431 26.2013 20.0175 29.8931 15.7987C32.4206 12.9075 36.075 11.25 39.9169 11.25H41.25C42.2869 11.25 43.125 10.41 43.125 9.375C43.125 8.34 42.2869 7.5 41.25 7.5H39.9169C34.9931 7.5 30.3113 9.62438 27.0675 13.3294C23.4675 17.4431 22.14 22.9725 23.2425 28.1494C21.4631 26.9737 19.3762 26.2969 17.1394 26.2519C16.2525 26.2444 15.3544 26.3081 14.4638 26.4656C8.25563 27.5775 3.75 33.165 3.75 39.7537C3.75 42.6787 4.29375 45.5531 5.36438 48.3C5.74125 49.2656 6.83063 49.7381 7.7925 49.365C8.75813 48.9881 9.23625 47.9006 8.8575 46.9369C7.9575 44.6269 7.5 42.21 7.5 39.7537C7.5 35.0625 10.7775 30.9356 15.1237 30.1575C15.7744 30.0413 16.4344 29.9812 17.0644 30.0019C19.9594 30.06 22.5094 31.6687 23.8875 34.305C25.3406 37.0875 25.1756 40.4175 23.5406 42.8775C21.1275 45.9431 20.0944 49.9125 20.7075 53.7656C21.0075 55.6462 21.6862 57.4313 22.6838 59.0156C18.7256 58.0613 15.1181 55.8844 12.4106 52.7944C11.7281 52.0125 10.545 51.9356 9.765 52.6181C8.98688 53.3006 8.90812 54.4856 9.59062 55.2638C13.1737 59.3588 18.0919 62.1038 23.4375 62.9944L27.8156 63.7238C27.9206 63.7425 28.0238 63.75 28.1269 63.75C28.8844 63.75 29.5819 63.2887 29.8688 62.565C30.195 61.7438 29.9025 60.8062 29.1656 60.315L28.8638 60.1144C26.4506 58.5056 24.87 56.0419 24.4144 53.1769C24.12 51.3244 24.3319 49.4869 25.02 47.7675C26.49 48.8175 28.2 49.4663 30 49.635V50.625C30 53.9906 30.8269 57.2663 32.385 60.2175C31.305 61.1794 30.6938 62.5481 30.7219 64.0012L30.7988 67.9575C30.8269 69.4256 31.4662 70.8131 32.5012 71.8444C30.4706 72.3525 28.5544 73.1925 26.8762 74.3925C20.6119 78.8662 16.875 86.1281 16.875 93.8231V101.25C16.875 109.521 23.6044 116.25 31.875 116.25H32.5969C40.8675 116.25 47.5969 109.521 47.5969 101.25V87.8363C48.5981 88.0219 49.6106 88.125 50.625 88.125C51.8944 88.125 53.1469 87.9656 54.375 87.6825V101.25C54.375 109.521 61.1044 116.25 69.375 116.25C76.6106 116.25 82.5 110.363 82.5 103.125V93.8231C82.5 88.1813 80.4919 82.7006 76.845 78.3938C76.1775 77.6025 74.9963 77.5013 74.2013 78.1725ZM58.7719 75L58.0969 71.2537C57.9788 70.5956 57.5194 70.0519 56.8912 69.8231C56.25 69.5906 55.7962 69.06 55.68 68.4075L55.2206 65.85C54.8175 63.615 55.4081 61.3669 56.7994 59.8369C58.1025 58.4025 59.7206 57.8269 61.2525 58.2694C62.6362 58.6669 63.6562 59.7938 63.9112 61.2113C64.095 62.2294 65.0681 62.9044 66.0881 62.7244C66.5794 62.6306 66.9169 62.8556 67.0781 62.9925C67.2394 63.1294 67.5075 63.435 67.5 63.9281L67.4231 67.8844C67.4119 68.4713 67.125 69.0319 66.6581 69.3806C65.3662 70.3462 64.5469 71.8294 64.4137 73.4475C64.3706 73.965 64.3875 74.4469 64.4719 74.9212L64.485 75H58.7719ZM76.875 40.3125C76.875 43.6125 74.4262 46.3519 71.25 46.8075V40.3125C71.25 38.7619 72.5119 37.5 74.0625 37.5C75.6131 37.5 76.875 38.7619 76.875 40.3125ZM33.75 37.3012C33.75 34.4269 35.0381 31.7475 37.2844 29.9494C38.4581 29.01 39.8231 28.4025 41.25 28.1062V30C41.25 31.035 42.0881 31.875 43.125 31.875C44.1619 31.875 45 31.035 45 30V28.0875C45.5625 28.1981 46.1194 28.3425 46.6631 28.56L48.75 29.3944V31.875C48.75 32.91 49.5881 33.75 50.625 33.75C51.6619 33.75 52.5 32.91 52.5 31.875V30.8513C56.8237 32.3644 61.5675 31.6744 65.2313 29.0381L65.5669 29.5406C66.8325 31.44 67.5 33.6469 67.5 35.9288V50.625C67.5 52.9256 67.0069 55.1719 66.1031 57.2644C65.1506 56.0475 63.8475 55.1138 62.2875 54.6637C59.3813 53.8294 56.2912 54.8194 54.0244 57.3131C51.8531 59.6981 50.9212 63.1387 51.5288 66.5137L51.6975 67.455C51.2325 67.4888 50.7562 67.4981 50.2669 67.4813L50.4412 66.5119C51.0469 63.135 50.115 59.6963 47.9475 57.3112C45.6769 54.8156 42.5869 53.8256 39.6825 54.6619C37.8581 55.1869 36.3806 56.3644 35.4206 57.9038C34.3294 55.6406 33.75 53.1656 33.75 50.625V37.3012ZM46.7513 65.8519L46.2919 68.4075C46.1756 69.0619 45.72 69.5906 45.0806 69.825C44.4525 70.0538 43.995 70.5975 43.875 71.2537L43.2 75H37.485L37.5 74.9194C37.8806 72.7931 37.0425 70.6706 35.3156 69.3825C34.8469 69.03 34.56 68.4731 34.5488 67.8863L34.4719 63.93C34.4625 63.435 34.7325 63.1313 34.8938 62.9925C35.055 62.8556 35.4019 62.6381 35.8838 62.7244C36.9019 62.9062 37.8769 62.2294 38.0606 61.2113C38.3156 59.7938 39.3356 58.6669 40.7194 58.2694C42.2512 57.8269 43.8694 58.4044 45.1744 59.8369C46.5638 61.3669 47.1525 63.615 46.7513 65.8519ZM26.9081 44.4994C28.2712 42.1875 28.8206 39.5306 28.5244 36.9169C29.3981 37.3931 30 38.31 30 39.375V45.8681C28.8731 45.6994 27.8119 45.2212 26.9081 44.4994ZM43.8469 101.25C43.8469 107.454 38.8013 112.5 32.5969 112.5H31.875C25.6706 112.5 20.625 107.454 20.625 101.25V93.8231C20.625 87.3375 23.7769 81.2156 29.0531 77.4469C29.5987 77.0569 30.1763 76.7119 30.7781 76.4137C30.7406 76.5619 30.7219 76.7175 30.7219 76.8769V100.093L28.0087 101.451C27.0825 101.914 26.7075 103.041 27.1706 103.967C27.6338 104.893 28.7606 105.27 29.6869 104.805L33.4369 102.93C34.0725 102.613 34.4737 101.963 34.4737 101.252V78.75H43.8488L43.8469 101.25ZM47.5969 84.0075V76.875C47.5969 76.305 47.3288 75.8119 46.9275 75.4669L47.4 72.8456C48.09 72.4181 48.6731 71.8463 49.1213 71.1806C49.6425 71.2238 50.1413 71.25 50.625 71.25C51.3431 71.25 52.0725 71.1937 52.815 71.1112C53.2669 71.8069 53.8594 72.405 54.5738 72.8475L55.0462 75.4688C54.6431 75.8119 54.375 76.305 54.375 76.875V83.82C52.1775 84.4781 49.8525 84.5494 47.5969 84.0075Z" fill="black"/>
<path d="M14.1657 107.19L10.4438 104.709L12.5776 102.576C13.3107 101.842 13.3107 100.657 12.5776 99.9244C11.8445 99.1912 10.6595 99.1912 9.92633 99.9244L6.17633 103.674C5.77883 104.072 5.58196 104.625 5.63633 105.186C5.69071 105.744 5.99446 106.249 6.46133 106.56L11.2501 109.753V114.375C11.2501 115.41 12.0882 116.25 13.1251 116.25C14.162 116.25 15.0001 115.41 15.0001 114.375V108.75C15.0001 108.124 14.687 107.539 14.1657 107.19Z" fill="black"/>
<path d="M113.931 13.8338C113.445 12.9188 112.309 12.57 111.396 13.0556C110.481 13.5413 110.132 14.6756 110.62 15.5906C111.85 17.91 112.5 20.4994 112.5 23.0794C112.5 39.2419 101.635 53.0531 86.2539 57.0244L88.0408 55.2356C93.8345 49.4456 94.7401 40.2956 90.1951 33.4781L86.8483 28.455C84.077 24.3 83.8108 18.9375 86.1489 14.46C88.3764 10.1981 92.5051 7.59752 97.1945 7.50377C97.637 7.49626 98.0645 7.50377 98.5014 7.53377C101.316 7.71564 104.01 8.73189 106.298 10.47C107.121 11.0963 108.3 10.9388 108.925 10.1138C109.551 9.28877 109.391 8.11314 108.568 7.48689C105.692 5.29877 102.295 4.02189 98.7433 3.79314C98.1958 3.75752 97.652 3.74814 97.1195 3.75564C91.0408 3.87752 85.697 7.23189 82.8264 12.7256C79.8526 18.4181 80.1995 25.2431 83.7283 30.5363L87.0751 35.5594C90.6301 40.8938 89.9233 48.0544 85.3895 52.5863L79.2995 58.6781C78.722 59.2556 78.5851 60.1369 78.9583 60.8625C79.2826 61.4888 79.9314 61.875 80.6251 61.875C80.7283 61.875 80.8295 61.8675 80.9326 61.8488L83.8108 61.3688C102.608 58.2375 116.25 42.1331 116.25 23.0775C116.25 19.8881 115.448 16.6913 113.931 13.8338Z" fill="black"/>
<path d="M91.875 22.5C92.9105 22.5 93.75 21.6605 93.75 20.625C93.75 19.5895 92.9105 18.75 91.875 18.75C90.8395 18.75 90 19.5895 90 20.625C90 21.6605 90.8395 22.5 91.875 22.5Z" fill="black"/>
<path d="M103.125 20.625C104.161 20.625 105 19.7855 105 18.75C105 17.7145 104.161 16.875 103.125 16.875C102.089 16.875 101.25 17.7145 101.25 18.75C101.25 19.7855 102.089 20.625 103.125 20.625Z" fill="black"/>
<path d="M93.75 33.75C94.7869 33.75 95.625 32.91 95.625 31.875V31.1587L96.6619 31.6762C97.59 32.1412 98.7131 31.7625 99.1781 30.8381L100.215 28.7662L102.287 29.8031C103.213 30.2644 104.338 29.8912 104.803 28.965L105.516 27.5419L105.551 27.5775C106.284 28.3106 107.469 28.3106 108.202 27.5775C108.936 26.8444 108.936 25.6594 108.202 24.9262L106.328 23.0512C105.902 22.6256 105.306 22.4344 104.702 22.5262C104.107 22.6237 103.594 22.9987 103.326 23.5387L102.289 25.6106L100.217 24.5737C99.2906 24.1106 98.1637 24.4856 97.7006 25.4119L96.6638 27.4837L94.5919 26.4469C94.0088 26.1581 93.3188 26.1862 92.7675 26.5294C92.2125 26.8725 91.875 27.4744 91.875 28.125V31.875C91.875 32.91 92.7131 33.75 93.75 33.75Z" fill="black"/>
<path d="M18.75 41.25C19.7855 41.25 20.625 40.4105 20.625 39.375C20.625 38.3395 19.7855 37.5 18.75 37.5C17.7145 37.5 16.875 38.3395 16.875 39.375C16.875 40.4105 17.7145 41.25 18.75 41.25Z" fill="black"/>
<path d="M11.25 41.25C12.2855 41.25 13.125 40.4105 13.125 39.375C13.125 38.3395 12.2855 37.5 11.25 37.5C10.2145 37.5 9.375 38.3395 9.375 39.375C9.375 40.4105 10.2145 41.25 11.25 41.25Z" fill="black"/>
</svg>
