<svg width="120" height="120" viewBox="0 0 120 120" fill="none" xmlns="http://www.w3.org/2000/svg">
<path d="M31.5645 53.384L32.2991 63.7743L41.7448 71.3308L42.0597 82.3508L46.4677 84.5548L49.3862 95.0072L55.0787 84.9835L53.0059 60.976L56.904 48.976H33.9589L31.5645 53.384Z" fill="#178BAF"/>
<path d="M42.1468 53.1797L43.2606 57.6347L53.2843 73.5057L57.4609 88.2628L58.2962 98.2866L60.5237 100.236L62.2105 109.429L70.0819 88.0183L75.7493 89.5925L77.6384 74.1646L82.6762 75.1092L85.5099 62.8297L88.9733 58.7366L87.0842 55.2732L86.5285 48.976H41.3115L42.1468 53.1797Z" fill="#178BAF"/>
<path d="M49.6163 95.5748L55.2837 84.24L47.7271 76.3686L46.4677 68.812L38.9111 62.2L49.2006 55.036L56.8579 70.7011L60.4 91.171L55.5985 99.9828L61.6375 109.115L53.965 107.63L49.6163 95.5748Z" fill="#3C96BA"/>
<path d="M75.749 89.5925L77.6381 74.1646L82.6758 75.1092L85.5095 62.8297L88.973 58.7366L87.0838 55.2732L86.5281 48.976H70.0815L76.6935 65.3486L73.2301 71.016L62.525 70.7011L63.7844 84.24L55.5981 99.9828L62.2101 109.429L70.0815 88.0183L75.749 89.5925Z" fill="#68B6E5"/>
<path d="M38.9111 48.6612V62.2L47.7271 59.3663L56.8579 70.7011L62.8402 48.6612" fill="#4EA6D1"/>
<path d="M69.9286 33.1322L66.3035 33.8629L57.5053 25.7373L53.0795 33.8629L50.5607 31.6589L46.1526 40.1601L40.8001 36.3818L35.6294 48.4191H88.199L86.1395 44.5681L82.0463 39.2155L79.2126 41.7344L69.9286 33.1322Z" fill="#D5F8FA"/>
<path d="M69.145 48.4191H88.199L86.1395 44.5681L82.0463 39.2155L79.2126 41.7343L69.9286 33.1322L69.145 48.4191Z" fill="#7CE8E5"/>
<path d="M67.0904 33.0758L69.7667 30.3995L79.2124 41.7343L85.5095 48.976H62.8398L63.1547 43.9383L67.8775 40.4749L67.0904 33.0758Z" fill="#D5F8FA"/>
<path d="M66.3035 33.8629L59.6915 21.7234L54.8291 30.6507L57.9248 44.9194L62.7511 39.0722L65.1642 39.7219L66.3035 33.8629Z" fill="#D5F8FA"/>
<path d="M67.4844 32.761L66.3033 33.8629L63.7845 38.2709L60.6359 35.7521L58.117 42.9938L56.6253 27.3778L53.1461 33.7408L50.5605 31.6589L46.1525 40.16L44.2983 44.1482L46.88 45.3835L44.374 49.56H55.3259L55.3384 49.3744H63.0294V44.1769L67.7628 40.2788L67.4844 32.761Z" fill="#7CE8E5"/>
<path d="M81.6223 30.227C80.1646 30.227 78.9829 28.7814 78.9829 27.3237C78.9829 25.866 80.1646 24.6843 81.6223 24.6843C82.1054 24.6843 82.5568 24.8163 82.9462 25.0429C83.0353 22.7892 84.8895 20.9892 87.165 20.9892C87.8642 20.9892 88.5231 21.1602 89.1039 21.461C89.8678 19.4867 91.7834 18.0859 94.0274 18.0859C96.8857 18.0859 99.2119 20.3582 99.3018 23.1948C99.7829 22.9655 100.321 22.8368 100.89 22.8368C102.93 22.8368 104.585 24.4911 104.585 26.5319C104.585 28.5726 102.93 30.227 100.89 30.227H81.6223Z" fill="#D5F8FA"/>
<path d="M18.592 25.4761C17.1343 25.4761 15.9526 24.0305 15.9526 22.5728C15.9526 21.1151 17.1343 19.9334 18.592 19.9334C19.0751 19.9334 19.5265 20.0654 19.916 20.292C20.005 18.0383 21.8592 16.2383 24.1347 16.2383C24.8339 16.2383 25.4928 16.4093 26.0736 16.7101C26.8376 14.7358 28.7532 13.335 30.9971 13.335C33.8555 13.335 36.1817 15.6073 36.2715 18.4439C36.7527 18.2145 37.291 18.0859 37.8595 18.0859C39.9002 18.0859 41.5546 19.7402 41.5546 21.781C41.5546 23.8217 39.9002 25.4761 37.8595 25.4761L18.592 25.4761Z" fill="#D5F8FA"/>
<path d="M110.711 47.687H87.7089L87.4237 44.4547L87.1636 43.785L83.0704 38.4324L81.1899 38.2522L79.351 39.8868L70.7573 29.5743L68.8557 29.488L66.6112 31.7325L60.8237 21.1069H58.5598L52.7174 31.8332L51.4094 30.6889L49.4164 31.0656L45.6887 38.2547L41.5435 35.3287L39.6674 35.7665L33.1921 47.6871H9.82715V50.2652H31.7917L30.4318 52.7688L30.2787 53.475L31.0134 63.8653L31.494 64.781L40.4734 71.9645L40.7712 82.3877L41.4832 83.5038L45.3944 85.4595L49.3286 98.4729L50.5882 102.566L52.8325 108.03L53.7346 108.795L61.9206 110.685L63.4205 109.873L70.8819 89.5783L75.4045 90.8346L77.0289 89.7493L78.751 75.6847L82.4389 76.3762L83.9324 75.399L86.6958 63.4238L89.9575 59.5692L90.105 58.1194L88.3447 54.892L87.9364 50.2651H110.711L110.711 47.687ZM81.8656 41.1011L84.8884 45.054L85.0104 46.4371L81.0222 41.8508L81.8656 41.1011ZM68.4377 33.5519L69.6805 32.3092L78.2225 42.5595L82.6809 47.687H64.2126L64.4042 44.621L68.6405 41.5144L69.1598 40.3385L68.4377 33.5519ZM62.466 83.9818L61.0529 86.6993L58.1783 70.758L63.7407 50.2651H69.2126L75.256 65.2299L72.5207 69.7055L62.5635 69.4126L61.2419 70.8205L62.466 83.9818ZM56.2762 67.924L48.7309 58.5577L47.3054 58.1482L40.2002 60.6076V50.2651H61.0694L56.2762 67.924ZM59.6917 24.4184L64.8277 33.8478L63.4134 36.3228L61.4418 34.7455L59.4188 35.3286L58.7602 37.2224L57.7186 28.0409L59.6917 24.4184ZM41.241 38.2708L44.5301 40.5926L43.1298 43.6048L45.4678 44.6917L47.311 40.7266L50.9488 33.7112L52.2311 34.8331L54.2117 34.4795L55.5713 31.9833L56.8367 43.139L59.335 43.4172L61.255 37.8976L62.9793 39.2775L64.9039 38.9105L66.178 36.6809L66.5177 39.8739L62.3927 42.8988L61.8685 43.8581L61.6293 47.687H36.1262L41.241 38.2708ZM50.0266 91.8721L47.7017 84.1819L47.0444 83.4019L43.3262 81.5429L43.0334 71.2939L42.55 70.3242L33.5452 63.1203L32.877 53.6686L34.7258 50.265H37.6221V62.1999L38.0622 63.17L45.2722 69.4785L46.4557 76.5804L46.7974 77.2613L53.7241 84.4767L50.0266 91.8721ZM54.963 106.433L53.0349 101.751L51.1127 95.4649L56.4366 84.8164L56.2135 83.3472L48.9331 75.7635L47.7392 68.6002L47.3167 67.8419L41.6094 62.8481L47.292 60.881L55.6477 71.2535L59.0527 90.1362L54.4546 99.3882L54.5425 100.722L59.2294 107.418L54.963 106.433ZM84.5258 61.9971L84.2539 62.5399L81.6984 73.6142L77.8758 72.8976L76.3588 74.0078L74.6519 87.9497L70.4269 86.7762L68.872 87.5733L61.8516 106.668L57.1027 99.884L64.9285 84.8346L65.0682 84.1206L63.9438 72.0324L73.1923 72.3045L74.3303 71.6882L77.7939 66.0209L77.8891 64.8659L71.9926 50.2651H85.3482L85.8002 55.3865L85.9525 55.8904L87.4185 58.5784L84.5258 61.9971Z" fill="black"/>
<path d="M81.6223 31.516H100.89C103.638 31.516 105.874 29.2802 105.874 26.5319C105.874 23.7836 103.638 21.5477 100.89 21.5477C100.708 21.5477 100.528 21.5573 100.35 21.5763C99.5773 18.7989 97.0477 16.7968 94.0274 16.7968C91.7653 16.7968 89.6655 17.9883 88.4762 19.8589C88.0476 19.7539 87.6066 19.7001 87.165 19.7001C84.7485 19.7001 82.6971 21.2383 81.9528 23.4093C81.843 23.4 81.7328 23.3952 81.6222 23.3952C79.456 23.3952 77.6938 25.1575 77.6938 27.3237C77.6939 29.557 79.5296 31.516 81.6223 31.516ZM81.6223 25.9734C81.8612 25.9734 82.0885 26.0352 82.298 26.1572L84.2344 25.0938C84.2966 23.515 85.5838 22.2783 87.165 22.2783C87.6388 22.2783 88.0915 22.3884 88.511 22.6057L90.3061 21.9262C90.8965 20.4002 92.392 19.375 94.0275 19.375C96.194 19.375 97.9448 21.0708 98.0135 23.2356L99.8564 24.3584C100.18 24.2042 100.528 24.1259 100.89 24.1259C102.217 24.1259 103.296 25.2053 103.296 26.532C103.296 27.8587 102.217 28.938 100.89 28.938H81.6223C80.9407 28.938 80.272 28.1384 80.272 27.3238C80.272 26.5791 80.8778 25.9734 81.6223 25.9734Z" fill="black"/>
<path d="M18.5922 26.7652H37.8597C40.608 26.7652 42.8437 24.5293 42.8437 21.781C42.8437 19.0327 40.608 16.7968 37.8597 16.7968C37.6781 16.7968 37.4984 16.8064 37.3204 16.8254C36.5472 14.0478 34.0177 12.0459 30.9972 12.0459C28.735 12.0459 26.6355 13.2376 25.4461 15.1082C25.0176 15.0032 24.5765 14.9493 24.1349 14.9493C21.7184 14.9493 19.667 16.4874 18.9225 18.6586C18.8128 18.6491 18.7027 18.6444 18.5922 18.6444C16.426 18.6444 14.6636 20.4067 14.6636 22.5728C14.6636 24.8061 16.4995 26.7652 18.5922 26.7652ZM18.5922 21.2226C18.8309 21.2226 19.0582 21.2844 19.2677 21.4062L21.2041 20.343C21.2665 18.7641 22.5539 17.5275 24.1349 17.5275C24.6088 17.5275 25.0617 17.6376 25.4812 17.8547L27.276 17.1752C27.8664 15.6492 29.3619 14.624 30.9972 14.624C33.1639 14.624 34.9147 16.3198 34.9832 18.4846L36.8262 19.6074C37.1499 19.4532 37.4977 19.3749 37.8597 19.3749C39.1862 19.3749 40.2656 20.4543 40.2656 21.781C40.2656 23.1077 39.1862 24.187 37.8597 24.187H18.5922C17.9107 24.187 17.2417 23.3874 17.2417 22.5728C17.2417 21.8283 17.8475 21.2226 18.5922 21.2226Z" fill="black"/>
</svg>
