<svg width="314" height="105" viewBox="0 0 314 105" fill="none" xmlns="http://www.w3.org/2000/svg">
<path d="M118.447 23V6.2H125.287C127.079 6.2 128.647 6.56 129.991 7.28C131.351 7.984 132.407 8.968 133.159 10.232C133.911 11.496 134.287 12.952 134.287 14.6C134.287 16.248 133.911 17.704 133.159 18.968C132.407 20.232 131.351 21.224 129.991 21.944C128.647 22.648 127.079 23 125.287 23H118.447ZM120.223 21.464H125.191C126.679 21.464 127.967 21.176 129.055 20.6C130.159 20.008 131.015 19.2 131.623 18.176C132.231 17.136 132.535 15.944 132.535 14.6C132.535 13.24 132.231 12.048 131.623 11.024C131.015 10 130.159 9.2 129.055 8.624C127.967 8.032 126.679 7.736 125.191 7.736H120.223V21.464ZM143.267 23.12C141.955 23.12 140.803 22.848 139.811 22.304C138.819 21.744 138.043 20.984 137.483 20.024C136.923 19.048 136.643 17.936 136.643 16.688C136.643 15.44 136.907 14.336 137.435 13.376C137.979 12.416 138.715 11.664 139.643 11.12C140.587 10.56 141.643 10.28 142.811 10.28C143.995 10.28 145.043 10.552 145.955 11.096C146.883 11.624 147.611 12.376 148.139 13.352C148.667 14.312 148.931 15.424 148.931 16.688C148.931 16.768 148.923 16.856 148.907 16.952C148.907 17.032 148.907 17.12 148.907 17.216H137.939V15.944H147.995L147.323 16.448C147.323 15.536 147.123 14.728 146.723 14.024C146.339 13.304 145.811 12.744 145.139 12.344C144.467 11.944 143.691 11.744 142.811 11.744C141.947 11.744 141.171 11.944 140.483 12.344C139.795 12.744 139.259 13.304 138.875 14.024C138.491 14.744 138.299 15.568 138.299 16.496V16.76C138.299 17.72 138.507 18.568 138.923 19.304C139.355 20.024 139.947 20.592 140.699 21.008C141.467 21.408 142.339 21.608 143.315 21.608C144.083 21.608 144.795 21.472 145.451 21.2C146.123 20.928 146.699 20.512 147.179 19.952L148.139 21.056C147.579 21.728 146.875 22.24 146.027 22.592C145.195 22.944 144.275 23.12 143.267 23.12ZM155.783 23.12C154.743 23.12 153.759 22.976 152.831 22.688C151.903 22.384 151.175 22.008 150.647 21.56L151.415 20.216C151.927 20.6 152.583 20.936 153.383 21.224C154.183 21.496 155.023 21.632 155.903 21.632C157.103 21.632 157.967 21.448 158.495 21.08C159.023 20.696 159.287 20.192 159.287 19.568C159.287 19.104 159.135 18.744 158.831 18.488C158.543 18.216 158.159 18.016 157.679 17.888C157.199 17.744 156.663 17.624 156.071 17.528C155.479 17.432 154.887 17.32 154.295 17.192C153.719 17.064 153.191 16.88 152.711 16.64C152.231 16.384 151.839 16.04 151.535 15.608C151.247 15.176 151.103 14.6 151.103 13.88C151.103 13.192 151.295 12.576 151.679 12.032C152.063 11.488 152.623 11.064 153.359 10.76C154.111 10.44 155.023 10.28 156.095 10.28C156.911 10.28 157.727 10.392 158.543 10.616C159.359 10.824 160.031 11.104 160.559 11.456L159.815 12.824C159.255 12.44 158.655 12.168 158.015 12.008C157.375 11.832 156.735 11.744 156.095 11.744C154.959 11.744 154.119 11.944 153.575 12.344C153.047 12.728 152.783 13.224 152.783 13.832C152.783 14.312 152.927 14.688 153.215 14.96C153.519 15.232 153.911 15.448 154.391 15.608C154.887 15.752 155.423 15.872 155.999 15.968C156.591 16.064 157.175 16.184 157.751 16.328C158.343 16.456 158.879 16.64 159.359 16.88C159.855 17.104 160.247 17.432 160.535 17.864C160.839 18.28 160.991 18.832 160.991 19.52C160.991 20.256 160.783 20.896 160.367 21.44C159.967 21.968 159.375 22.384 158.591 22.688C157.823 22.976 156.887 23.12 155.783 23.12ZM172.014 23V20.216L171.942 19.76V15.104C171.942 14.032 171.638 13.208 171.03 12.632C170.438 12.056 169.55 11.768 168.366 11.768C167.55 11.768 166.774 11.904 166.038 12.176C165.302 12.448 164.678 12.808 164.166 13.256L163.398 11.984C164.038 11.44 164.806 11.024 165.702 10.736C166.598 10.432 167.542 10.28 168.534 10.28C170.166 10.28 171.422 10.688 172.302 11.504C173.198 12.304 173.646 13.528 173.646 15.176V23H172.014ZM167.67 23.12C166.726 23.12 165.902 22.968 165.198 22.664C164.51 22.344 163.982 21.912 163.614 21.368C163.246 20.808 163.062 20.168 163.062 19.448C163.062 18.792 163.214 18.2 163.518 17.672C163.838 17.128 164.35 16.696 165.054 16.376C165.774 16.04 166.734 15.872 167.934 15.872H172.278V17.144H167.982C166.766 17.144 165.918 17.36 165.438 17.792C164.974 18.224 164.742 18.76 164.742 19.4C164.742 20.12 165.022 20.696 165.582 21.128C166.142 21.56 166.926 21.776 167.934 21.776C168.894 21.776 169.718 21.56 170.406 21.128C171.11 20.68 171.622 20.04 171.942 19.208L172.326 20.384C172.006 21.216 171.446 21.88 170.646 22.376C169.862 22.872 168.87 23.12 167.67 23.12ZM178.562 23V8.816C178.562 7.696 178.89 6.792 179.546 6.104C180.202 5.416 181.146 5.072 182.378 5.072C182.858 5.072 183.322 5.136 183.77 5.264C184.218 5.392 184.594 5.592 184.898 5.864L184.322 7.136C184.082 6.928 183.802 6.776 183.482 6.68C183.162 6.568 182.818 6.512 182.45 6.512C181.73 6.512 181.178 6.712 180.794 7.112C180.41 7.512 180.218 8.104 180.218 8.888V10.808L180.266 11.6V23H178.562ZM176.306 11.816V10.4H184.106V11.816H176.306ZM186.41 23V10.4H188.114V23H186.41ZM187.274 7.616C186.922 7.616 186.626 7.496 186.386 7.256C186.146 7.016 186.026 6.728 186.026 6.392C186.026 6.056 186.146 5.776 186.386 5.552C186.626 5.312 186.922 5.192 187.274 5.192C187.626 5.192 187.922 5.304 188.162 5.528C188.402 5.752 188.522 6.032 188.522 6.368C188.522 6.72 188.402 7.016 188.162 7.256C187.938 7.496 187.642 7.616 187.274 7.616ZM198.035 23.12C196.819 23.12 195.723 22.848 194.747 22.304C193.787 21.744 193.027 20.984 192.467 20.024C191.907 19.048 191.627 17.936 191.627 16.688C191.627 15.424 191.907 14.312 192.467 13.352C193.027 12.392 193.787 11.64 194.747 11.096C195.707 10.552 196.803 10.28 198.035 10.28C199.283 10.28 200.387 10.552 201.347 11.096C202.323 11.64 203.083 12.392 203.627 13.352C204.187 14.312 204.467 15.424 204.467 16.688C204.467 17.936 204.187 19.048 203.627 20.024C203.083 20.984 202.323 21.744 201.347 22.304C200.371 22.848 199.267 23.12 198.035 23.12ZM198.035 21.608C198.947 21.608 199.755 21.408 200.459 21.008C201.163 20.592 201.715 20.016 202.115 19.28C202.531 18.528 202.739 17.664 202.739 16.688C202.739 15.696 202.531 14.832 202.115 14.096C201.715 13.36 201.163 12.792 200.459 12.392C199.755 11.976 198.955 11.768 198.059 11.768C197.163 11.768 196.363 11.976 195.659 12.392C194.955 12.792 194.395 13.36 193.979 14.096C193.563 14.832 193.355 15.696 193.355 16.688C193.355 17.664 193.563 18.528 193.979 19.28C194.395 20.016 194.955 20.592 195.659 21.008C196.363 21.408 197.155 21.608 198.035 21.608Z" fill="#EDEDED"/>
<path d="M17.8885 36.568C20.3845 36.568 22.3045 37.5493 23.6485 39.512C25.0138 41.4747 25.6965 43.8533 25.6965 46.648C25.6965 48.8027 25.3552 50.84 24.6725 52.76C23.9898 54.6587 22.9232 56.2587 21.4725 57.56C20.0218 58.84 18.3258 59.48 16.3845 59.48C16.0005 59.48 14.5498 59.3307 12.0325 59.032C12.3312 54.4453 12.4805 50.648 12.4805 47.64C12.4805 44.632 12.3845 41.304 12.1925 37.656C14.2618 36.9307 16.1605 36.568 17.8885 36.568ZM17.1845 55.576C18.1658 55.576 19.1365 54.712 20.0965 52.984C21.0778 51.2347 21.5685 49.3573 21.5685 47.352C21.5685 45.3253 21.2165 43.6613 20.5125 42.36C19.8298 41.0587 19.0085 40.408 18.0485 40.408C17.5365 40.408 17.0565 40.4933 16.6085 40.664C16.6938 43.8213 16.7365 46.4773 16.7365 48.632C16.7365 50.7653 16.6725 52.9947 16.5445 55.32C16.6938 55.4907 16.9072 55.576 17.1845 55.576ZM30.975 59.128C30.8897 55.7573 30.847 52.568 30.847 49.56C30.847 46.552 31.0177 42.6373 31.359 37.816C35.007 37.2613 38.5697 36.984 42.047 36.984V40.92C39.6363 40.92 37.3963 40.9947 35.327 41.144C35.2417 43.5333 35.1883 45.368 35.167 46.648C36.7883 46.4133 38.7083 46.2747 40.927 46.232L41.535 49.752C40.1057 49.7733 37.9617 49.9333 35.103 50.232C35.103 52.792 35.1137 54.6373 35.135 55.768C36.991 55.6187 39.2097 55.2987 41.791 54.808L42.335 58.328C40.5217 59.16 38.3777 59.576 35.903 59.576L30.975 59.128ZM52.5835 36.856C52.3915 40.2267 52.2955 44.024 52.2955 48.248C52.2955 52.472 52.4342 56.3227 52.7115 59.8L48.3915 59.416C48.1142 55.064 47.9755 51.1387 47.9755 47.64C47.9755 44.12 48.0715 40.3973 48.2635 36.472L52.5835 36.856ZM57.3535 57.88C58.7188 54.5307 60.2122 51.32 61.8335 48.248C60.1482 44.4507 58.9428 40.92 58.2175 37.656L62.6655 38.04C62.8788 39.6187 63.4122 41.944 64.2655 45.016C65.6735 42.1573 67.1882 39.352 68.8095 36.6L71.9135 39.256C70.1428 41.9013 68.3082 45.016 66.4095 48.6C67.6255 51.5653 69.1828 55.1173 71.0815 59.256L66.7615 58.808C65.9295 56.9093 65.0335 54.6267 64.0735 51.96C62.3882 55.5867 61.2682 58.2533 60.7135 59.96L57.3535 57.88ZM76.07 59.128C75.9847 55.7573 75.942 52.568 75.942 49.56C75.942 46.552 76.1127 42.6373 76.454 37.816C80.102 37.2613 83.6647 36.984 87.142 36.984V40.92C84.7313 40.92 82.4913 40.9947 80.422 41.144C80.3367 43.5333 80.2833 45.368 80.262 46.648C81.8833 46.4133 83.8033 46.2747 86.022 46.232L86.63 49.752C85.2007 49.7733 83.0567 49.9333 80.198 50.232C80.198 52.792 80.2087 54.6373 80.23 55.768C82.086 55.6187 84.3047 55.2987 86.886 54.808L87.43 58.328C85.6167 59.16 83.4727 59.576 80.998 59.576L76.07 59.128ZM107.829 36.568C110.325 36.568 112.245 37.5493 113.589 39.512C114.954 41.4747 115.637 43.8533 115.637 46.648C115.637 48.8027 115.295 50.84 114.613 52.76C113.93 54.6587 112.863 56.2587 111.413 57.56C109.962 58.84 108.266 59.48 106.325 59.48C105.941 59.48 104.49 59.3307 101.973 59.032C102.271 54.4453 102.421 50.648 102.421 47.64C102.421 44.632 102.325 41.304 102.133 37.656C104.202 36.9307 106.101 36.568 107.829 36.568ZM107.125 55.576C108.106 55.576 109.077 54.712 110.037 52.984C111.018 51.2347 111.509 49.3573 111.509 47.352C111.509 45.3253 111.157 43.6613 110.453 42.36C109.77 41.0587 108.949 40.408 107.989 40.408C107.477 40.408 106.997 40.4933 106.549 40.664C106.634 43.8213 106.677 46.4773 106.677 48.632C106.677 50.7653 106.613 52.9947 106.485 55.32C106.634 55.4907 106.847 55.576 107.125 55.576ZM120.915 59.128C120.83 55.7573 120.787 52.568 120.787 49.56C120.787 46.552 120.958 42.6373 121.299 37.816C124.947 37.2613 128.51 36.984 131.987 36.984V40.92C129.576 40.92 127.336 40.9947 125.267 41.144C125.182 43.5333 125.128 45.368 125.107 46.648C126.728 46.4133 128.648 46.2747 130.867 46.232L131.475 49.752C130.046 49.7733 127.902 49.9333 125.043 50.232C125.043 52.792 125.054 54.6373 125.075 55.768C126.931 55.6187 129.15 55.2987 131.731 54.808L132.275 58.328C130.462 59.16 128.318 59.576 125.843 59.576L120.915 59.128ZM154.721 45.016C154.999 43.9707 155.137 43.096 155.137 42.392C155.137 41.688 154.945 41.112 154.561 40.664C154.177 40.1947 153.676 39.96 153.057 39.96C152.46 39.96 151.959 40.2587 151.553 40.856C151.148 41.4533 150.945 42.136 150.945 42.904C150.945 44.3973 151.799 45.6773 153.505 46.744C155.212 47.8533 156.375 48.6533 156.993 49.144C157.612 49.6347 158.049 50.0827 158.305 50.488C158.945 51.5333 159.265 52.6107 159.265 53.72C159.265 55.64 158.615 57.176 157.313 58.328C156.033 59.4587 154.583 60.024 152.961 60.024C151.041 60.024 149.431 59.2133 148.129 57.592C147.191 56.4187 146.327 54.9573 145.537 53.208L148.641 51.704C149.132 52.984 149.74 54.072 150.465 54.968C151.212 55.8427 152.001 56.28 152.833 56.28C153.367 56.28 153.847 56.1093 154.273 55.768C154.7 55.4267 154.913 54.9147 154.913 54.232C154.913 53.528 154.647 52.8773 154.113 52.28C153.58 51.6827 152.865 51.0747 151.969 50.456C151.073 49.8373 150.38 49.336 149.889 48.952C149.399 48.5467 148.855 48.0347 148.257 47.416C147.127 46.2213 146.561 44.696 146.561 42.84C146.561 40.9627 147.212 39.3947 148.513 38.136C149.815 36.856 151.361 36.216 153.153 36.216C154.945 36.216 156.449 36.9093 157.665 38.296C158.903 39.6827 159.521 41.112 159.521 42.584C159.521 44.0347 159.244 45.2827 158.689 46.328L154.721 45.016ZM164.885 59.128C164.8 55.7573 164.757 52.568 164.757 49.56C164.757 46.552 164.928 42.6373 165.269 37.816C168.917 37.2613 172.48 36.984 175.957 36.984V40.92C173.546 40.92 171.306 40.9947 169.237 41.144C169.152 43.5333 169.098 45.368 169.077 46.648C170.698 46.4133 172.618 46.2747 174.837 46.232L175.445 49.752C174.016 49.7733 171.872 49.9333 169.013 50.232C169.013 52.792 169.024 54.6373 169.045 55.768C170.901 55.6187 173.12 55.2987 175.701 54.808L176.245 58.328C174.432 59.16 172.288 59.576 169.813 59.576L164.885 59.128ZM181.022 59.288C181.299 54.168 181.438 49.6027 181.438 45.592C181.438 41.5813 181.427 38.9467 181.406 37.688C183.752 36.5787 186.195 36.024 188.734 36.024C190.611 36.024 192.179 36.6213 193.438 37.816C194.718 39.0107 195.358 40.696 195.358 42.872C195.358 45.3893 193.576 47.8107 190.014 50.136C191.955 52.568 193.939 55.2453 195.966 58.168L192.894 60.44C191.55 58.4133 189.139 55.1067 185.662 50.52C185.598 53.8053 185.502 56.888 185.374 59.768L181.022 59.288ZM185.758 48.344C187.336 47.5973 188.68 46.68 189.79 45.592C190.899 44.4827 191.454 43.48 191.454 42.584C191.454 41.688 191.187 40.9947 190.654 40.504C190.142 40.0133 189.459 39.768 188.606 39.768C187.752 39.768 186.814 39.9493 185.79 40.312C185.79 43.9173 185.779 46.5947 185.758 48.344ZM212.72 59.064C212.507 55.288 212.4 52.0027 212.4 49.208C212.4 46.392 212.464 43.4587 212.592 40.408L208.688 40.952L207.984 37.24C210.075 36.8773 212.144 36.6107 214.192 36.44L220.176 36.12L220.784 39.672C219.611 39.736 218.288 39.832 216.816 39.96C216.688 43.032 216.624 45.848 216.624 48.408C216.624 50.968 216.667 54.6373 216.752 59.416L212.72 59.064ZM224.679 59.288C224.956 54.168 225.095 49.6027 225.095 45.592C225.095 41.5813 225.084 38.9467 225.063 37.688C227.41 36.5787 229.852 36.024 232.391 36.024C234.268 36.024 235.836 36.6213 237.095 37.816C238.375 39.0107 239.015 40.696 239.015 42.872C239.015 45.3893 237.234 47.8107 233.671 50.136C235.612 52.568 237.596 55.2453 239.623 58.168L236.551 60.44C235.207 58.4133 232.796 55.1067 229.319 50.52C229.255 53.8053 229.159 56.888 229.031 59.768L224.679 59.288ZM229.415 48.344C230.994 47.5973 232.338 46.68 233.447 45.592C234.556 44.4827 235.111 43.48 235.111 42.584C235.111 41.688 234.844 40.9947 234.311 40.504C233.799 40.0133 233.116 39.768 232.263 39.768C231.41 39.768 230.471 39.9493 229.447 40.312C229.447 43.9173 229.436 46.5947 229.415 48.344ZM250.067 60.088C248.041 60.088 246.323 59.1813 244.915 57.368C243.529 55.5333 242.835 52.76 242.835 49.048C242.835 45.3147 243.593 42.2747 245.107 39.928C246.643 37.5813 248.446 36.408 250.515 36.408C252.585 36.408 254.302 37.3253 255.667 39.16C257.054 40.9947 257.747 43.7573 257.747 47.448C257.747 51.1387 256.979 54.168 255.443 56.536C253.907 58.904 252.115 60.088 250.067 60.088ZM250.547 40.216C249.609 40.216 248.798 41.048 248.115 42.712C247.433 44.3547 247.091 46.4347 247.091 48.952C247.091 51.448 247.379 53.304 247.955 54.52C248.553 55.7147 249.289 56.312 250.163 56.312C251.038 56.312 251.806 55.48 252.467 53.816C253.15 52.152 253.491 50.072 253.491 47.576C253.491 45.0587 253.203 43.2027 252.627 42.008C252.073 40.8133 251.379 40.216 250.547 40.216ZM266.787 51.48C266.787 52.5893 267.032 53.5813 267.523 54.456C268.014 55.3307 268.59 55.768 269.251 55.768C269.934 55.768 270.478 55.4693 270.883 54.872C271.288 54.2747 271.576 53.4853 271.747 52.504C272.046 50.776 272.195 48.7813 272.195 46.52C272.195 44.2373 272.056 40.8987 271.779 36.504L276.131 36.952C276.43 41.3467 276.579 44.3333 276.579 45.912C276.579 47.4907 276.558 48.6 276.515 49.24C276.472 49.8587 276.387 50.584 276.259 51.416C276.131 52.248 275.96 53.0267 275.747 53.752C275.534 54.4773 275.246 55.2027 274.883 55.928C274.52 56.6533 274.094 57.272 273.603 57.784C272.515 58.9573 271.032 59.544 269.155 59.544C267.299 59.544 265.71 58.712 264.387 57.048C263.064 55.384 262.403 53.528 262.403 51.48C262.403 46.9787 262.648 42.1787 263.139 37.08L267.491 37.496C267.022 42.168 266.787 46.8293 266.787 51.48ZM280.901 57.88C282.266 54.5307 283.76 51.32 285.381 48.248C283.696 44.4507 282.49 40.92 281.765 37.656L286.213 38.04C286.426 39.6187 286.96 41.944 287.813 45.016C289.221 42.1573 290.736 39.352 292.357 36.6L295.461 39.256C293.69 41.9013 291.856 45.016 289.957 48.6C291.173 51.5653 292.73 55.1173 294.629 59.256L290.309 58.808C289.477 56.9093 288.581 54.6267 287.621 51.96C285.936 55.5867 284.816 58.2533 284.261 59.96L280.901 57.88ZM308.513 58.68L307.777 54.232L303.009 54.424L301.793 60.44L297.313 60.056L303.041 36.856L308.961 37.368L313.153 59.064L308.513 58.68ZM305.697 41.048L303.681 51L307.265 50.872L305.697 41.048Z" fill="#FF0143"/>
<path d="M108.103 97.12C106.791 97.12 105.639 96.848 104.647 96.304C103.655 95.744 102.879 94.984 102.319 94.024C101.759 93.048 101.479 91.936 101.479 90.688C101.479 89.44 101.743 88.336 102.271 87.376C102.815 86.416 103.551 85.664 104.479 85.12C105.423 84.56 106.479 84.28 107.647 84.28C108.831 84.28 109.879 84.552 110.791 85.096C111.719 85.624 112.447 86.376 112.975 87.352C113.503 88.312 113.767 89.424 113.767 90.688C113.767 90.768 113.759 90.856 113.743 90.952C113.743 91.032 113.743 91.12 113.743 91.216H102.775V89.944H112.831L112.159 90.448C112.159 89.536 111.959 88.728 111.559 88.024C111.175 87.304 110.647 86.744 109.975 86.344C109.303 85.944 108.527 85.744 107.647 85.744C106.783 85.744 106.007 85.944 105.319 86.344C104.631 86.744 104.095 87.304 103.711 88.024C103.327 88.744 103.135 89.568 103.135 90.496V90.76C103.135 91.72 103.343 92.568 103.759 93.304C104.191 94.024 104.783 94.592 105.535 95.008C106.303 95.408 107.175 95.608 108.151 95.608C108.919 95.608 109.631 95.472 110.287 95.2C110.959 94.928 111.535 94.512 112.015 93.952L112.975 95.056C112.415 95.728 111.711 96.24 110.863 96.592C110.031 96.944 109.111 97.12 108.103 97.12ZM132.979 84.28C134.003 84.28 134.891 84.48 135.643 84.88C136.411 85.264 137.003 85.856 137.419 86.656C137.851 87.456 138.067 88.464 138.067 89.68V97H136.363V89.848C136.363 88.52 136.043 87.52 135.403 86.848C134.779 86.16 133.891 85.816 132.739 85.816C131.875 85.816 131.123 86 130.483 86.368C129.859 86.72 129.371 87.24 129.019 87.928C128.683 88.6 128.515 89.416 128.515 90.376V97H126.811V89.848C126.811 88.52 126.491 87.52 125.851 86.848C125.211 86.16 124.315 85.816 123.163 85.816C122.315 85.816 121.571 86 120.931 86.368C120.291 86.72 119.795 87.24 119.443 87.928C119.107 88.6 118.939 89.416 118.939 90.376V97H117.235V84.4H118.867V87.808L118.603 87.208C118.987 86.296 119.603 85.584 120.451 85.072C121.315 84.544 122.331 84.28 123.499 84.28C124.731 84.28 125.779 84.592 126.643 85.216C127.507 85.824 128.067 86.744 128.323 87.976L127.651 87.712C128.019 86.688 128.667 85.864 129.595 85.24C130.539 84.6 131.667 84.28 132.979 84.28Z" fill="#EDEDED"/>
<path d="M158.957 76.232L159.981 79.848C156.696 86.504 154.594 92.3813 153.677 97.48L149.901 97.128C151.01 91.304 153.133 85.544 156.269 79.848C153.538 80.0613 151.224 80.296 149.325 80.552L148.621 77.096C151.33 76.7333 154.776 76.4453 158.957 76.232ZM177.375 82.504L177.407 78.536C177.407 77.064 177.375 75.3893 177.311 73.512L181.055 73.832C181.098 75.3467 181.119 78.0987 181.119 82.088C181.119 86.056 180.948 91.176 180.607 97.448L177.759 97.192C177.695 96.3387 177.631 95.336 177.567 94.184C176.65 96.0187 175.658 96.936 174.591 96.936C172.948 96.936 171.807 96.424 171.167 95.4C170.527 94.376 170.207 92.8933 170.207 90.952C170.207 88.9893 170.623 86.9627 171.455 84.872C172.308 82.7813 173.268 81.736 174.335 81.736C175.295 81.736 176.308 81.992 177.375 82.504ZM177.471 85.48C176.938 85.0747 176.404 84.872 175.871 84.872C175.359 84.872 174.911 85.5653 174.527 86.952C174.143 88.3173 173.951 89.7467 173.951 91.24C173.951 92.7333 174.314 93.48 175.039 93.48C175.316 93.48 175.69 93.0213 176.159 92.104C176.628 91.1653 177.055 89.9813 177.439 88.552L177.471 85.48ZM184.708 81.736L188.356 82.088V97.448L184.708 97.096V81.736ZM184.964 76.104L188.548 76.52L188.228 80.104L184.644 79.656L184.964 76.104ZM191.535 87.56C191.855 85.896 192.463 84.488 193.359 83.336C194.255 82.1627 195.428 81.576 196.879 81.576C198.329 81.576 199.396 82.184 200.079 83.4C200.783 84.5947 201.135 86.3013 201.135 88.52C201.135 90.7387 201.007 93.8 200.751 97.704L198.062 97.48L197.807 96.456C196.804 97.032 195.78 97.32 194.735 97.32C193.689 97.32 192.825 96.9787 192.143 96.296C191.46 95.592 191.118 94.5893 191.118 93.288C191.118 91.9867 191.759 90.8667 193.039 89.928C194.34 88.9893 195.833 88.4987 197.519 88.456V87.592C197.519 85.9067 197.113 85.064 196.303 85.064C195.897 85.064 195.524 85.352 195.183 85.928C194.863 86.4827 194.628 87.1227 194.479 87.848L191.535 87.56ZM194.383 93.48C194.383 94.1627 194.788 94.504 195.599 94.504C196.153 94.504 196.74 94.376 197.359 94.12L197.423 91.432C196.42 91.5173 195.663 91.7733 195.151 92.2C194.639 92.6053 194.383 93.032 194.383 93.48ZM210.115 86.92C210.115 85.64 209.795 85 209.155 85C208.835 85 208.537 85.16 208.259 85.48C208.003 85.7787 207.875 86.1947 207.875 86.728C207.875 87.24 207.971 87.6667 208.163 88.008C208.377 88.3493 208.75 88.6907 209.283 89.032C209.838 89.352 210.265 89.6187 210.563 89.832C210.883 90.024 211.257 90.3013 211.683 90.664C212.558 91.432 212.995 92.424 212.995 93.64C212.995 94.8347 212.537 95.8053 211.619 96.552C210.723 97.2987 209.71 97.672 208.579 97.672C207.449 97.672 206.425 97.3733 205.507 96.776C204.611 96.1573 203.886 95.3893 203.331 94.472L205.059 92.52C205.913 93.992 206.809 94.728 207.747 94.728C208.067 94.728 208.345 94.6427 208.579 94.472C208.814 94.28 208.931 94.024 208.931 93.704C208.931 93.0213 208.441 92.392 207.459 91.816C206.414 91.24 205.593 90.6 204.995 89.896C204.398 89.192 204.099 88.2 204.099 86.92C204.099 85.6187 204.633 84.456 205.699 83.432C206.766 82.3867 207.907 81.864 209.123 81.864C210.361 81.864 211.331 82.2907 212.035 83.144C212.761 83.976 213.123 85.1067 213.123 86.536C213.123 87.112 213.059 87.7307 212.931 88.392L210.019 88.136C210.083 87.6453 210.115 87.24 210.115 86.92Z" fill="#FF0143"/>
<rect x="12" y="64" width="302" height="3" fill="#FF0143"/>
<rect x="150" y="102" width="64" height="3" fill="#FF0143"/>
</svg>
