<svg width="117" height="117" viewBox="0 0 117 117" fill="none" xmlns="http://www.w3.org/2000/svg">
<path d="M58.5 87.75C80.7122 87.75 98.7188 69.7435 98.7188 47.5312C98.7188 25.319 80.7122 7.3125 58.5 7.3125C36.2878 7.3125 18.2812 25.319 18.2812 47.5312C18.2812 69.7435 36.2878 87.75 58.5 87.75Z" fill="#B4F6FF"/>
<path d="M58.5 87.75C66.8969 87.7568 75.085 85.1331 81.9143 80.2475C88.7436 75.3618 93.8708 68.4597 96.576 60.5104C99.2811 52.5612 99.4282 43.9642 96.9966 35.9271C94.5651 27.8899 89.6769 20.8164 83.0188 15.6999C87.6138 21.645 90.4494 28.7595 91.2033 36.2354C91.9573 43.7113 90.5994 51.2488 87.284 57.9916C83.9686 64.7344 78.8285 70.4122 72.4478 74.3799C66.067 78.3477 58.7013 80.4463 51.1875 80.4375L58.5 87.75Z" fill="#ADF1FF"/>
<path d="M45.9771 37.4821C51.6877 31.7716 54.0023 24.8276 51.1471 21.9723C48.2918 19.117 41.3478 21.4317 35.6372 27.1422C29.9267 32.8528 27.612 39.7968 30.4673 42.6521C33.3226 45.5073 40.2666 43.1927 45.9771 37.4821Z" fill="#D2FAFF"/>
<path d="M29.25 95.0625H87.75C89.6894 95.0625 91.5494 95.8329 92.9207 97.2043C94.2921 98.5756 95.0625 100.436 95.0625 102.375V109.688H21.9375V102.375C21.9375 100.436 22.7079 98.5756 24.0793 97.2043C25.4506 95.8329 27.3106 95.0625 29.25 95.0625Z" fill="#C88246"/>
<path d="M36.5625 102.375H95.0625C95.0625 100.436 94.2921 98.5756 92.9207 97.2043C91.5494 95.8329 89.6894 95.0625 87.75 95.0625H29.25C27.3106 95.0625 25.4506 95.8329 24.0793 97.2043C22.7079 98.5756 21.9375 100.436 21.9375 102.375V109.688H29.25C29.25 107.748 30.0204 105.888 31.3918 104.517C32.7631 103.145 34.6231 102.375 36.5625 102.375Z" fill="#D39962"/>
<path d="M81.5819 80.4375H35.4181L29.25 95.0625H87.75L81.5819 80.4375Z" fill="#A9611D"/>
<path d="M50.6683 87.75H84.6714L81.5892 80.4375H35.4181L29.25 95.0625H39.6484C40.5624 92.8949 42.0955 91.0451 44.0556 89.7444C46.0157 88.4437 48.3159 87.75 50.6683 87.75Z" fill="#BC7636"/>
<path d="M58.5001 65.8125C58.5001 65.8125 36.5626 53.2752 36.5626 40.7416C36.554 38.1906 37.3271 35.6982 38.7777 33.5997C40.2283 31.5013 42.2869 29.8975 44.6764 29.0042C47.0659 28.1109 49.6717 27.971 52.1432 28.6033C54.6146 29.2355 56.8331 30.6096 58.5001 32.5406C60.1677 30.6089 62.3872 29.2345 64.8597 28.6025C67.3321 27.9706 69.9389 28.1114 72.3289 29.0061C74.7189 29.9008 76.7774 31.5063 78.2272 33.6065C79.6769 35.7066 80.4484 38.2006 80.4376 40.7526C80.4376 53.2752 58.5001 65.8125 58.5001 65.8125Z" fill="#FF2328"/>
<path d="M51.82 28.5188C50.9278 28.3139 50.0152 28.2109 49.0998 28.2116C45.776 28.2116 42.5882 29.5315 40.2372 31.8811C37.8862 34.2307 36.5644 37.4178 36.5625 40.7416C36.5738 41.6185 36.6817 42.4916 36.8843 43.3448C40.3358 42.138 43.4537 40.1337 45.9847 37.4948C48.5941 34.9913 50.591 31.9197 51.82 28.5188Z" fill="#FF6C70"/>
<path d="M90.3094 91.7426L86.0169 81.5636C93.0871 75.8681 98.2164 68.1196 100.698 59.3863C103.179 50.6529 102.889 41.365 99.8697 32.803C96.8501 24.241 91.2487 16.8265 83.8378 11.582C76.4269 6.33738 67.5716 3.52093 58.4927 3.52093C49.4138 3.52093 40.5584 6.33738 33.1476 11.582C25.7367 16.8265 20.1353 24.241 17.1156 32.803C14.0959 41.365 13.8067 50.6529 16.2878 59.3863C18.769 68.1196 23.8982 75.8681 30.9684 81.5636L26.6906 91.7426C24.3002 92.3162 22.1718 93.6761 20.6468 95.6042C19.1219 97.5323 18.2888 99.9168 18.2812 102.375V109.687C18.2812 110.657 18.6665 111.587 19.3521 112.273C20.0378 112.959 20.9678 113.344 21.9375 113.344H95.0625C96.0322 113.344 96.9622 112.959 97.6479 112.273C98.3335 111.587 98.7187 110.657 98.7187 109.687V102.375C98.7112 99.9168 97.8781 97.5323 96.3532 95.6042C94.8282 93.6761 92.6998 92.3162 90.3094 91.7426ZM37.8458 84.0937H79.1615L82.2473 91.4062H34.76L37.8458 84.0937ZM21.9375 47.5312C21.9212 41.2882 23.5038 35.1449 26.5345 29.6867C29.5652 24.2286 33.943 19.6374 39.2509 16.3506C44.5587 13.0638 50.6198 11.1908 56.8566 10.9102C63.0934 10.6297 69.2982 11.9508 74.8798 14.7477C80.4613 17.5446 85.2338 21.7241 88.7423 26.8881C92.2509 32.052 94.3787 38.0284 94.9231 44.2477C95.4675 50.467 94.4103 56.7222 91.8522 62.4172C89.2941 68.1121 85.3203 73.0572 80.3095 76.7812H36.6905C32.126 73.389 28.4158 68.9787 25.8547 63.901C23.2936 58.8233 21.9524 53.2182 21.9375 47.5312ZM91.4062 106.031H25.5937V102.375C25.5937 101.405 25.979 100.475 26.6646 99.7896C27.3503 99.104 28.2803 98.7187 29.25 98.7187H87.75C88.7197 98.7187 89.6497 99.104 90.3354 99.7896C91.021 100.475 91.4062 101.405 91.4062 102.375V106.031Z" fill="black"/>
<path d="M56.6719 68.9861C57.2243 69.3016 57.8493 69.4676 58.4854 69.4676C59.1215 69.4676 59.7466 69.3016 60.2989 68.9861C62.734 67.5968 84.0646 54.9863 84.0646 40.7416C84.0752 37.7637 83.2616 34.8409 81.7137 32.2969C80.1658 29.7528 77.944 27.6868 75.2944 26.3275C72.6447 24.9683 69.6706 24.3688 66.7013 24.5955C63.732 24.8222 60.8834 25.8662 58.4708 27.612C56.0582 25.8662 53.2096 24.8222 50.2403 24.5955C47.271 24.3688 44.2969 24.9683 41.6473 26.3275C38.9976 27.6868 36.7759 29.7528 35.2279 32.2969C33.68 34.8409 32.8664 37.7637 32.8771 40.7416C32.9063 54.9863 54.2515 67.5968 56.6719 68.9861ZM49.0998 31.8606C50.3642 31.8622 51.6132 32.1379 52.7607 32.6687C53.9083 33.1996 54.9271 33.9729 55.7469 34.9355C56.0998 35.312 56.5262 35.6122 56.9998 35.8174C57.4733 36.0226 57.984 36.1285 58.5001 36.1285C59.0162 36.1285 59.5268 36.0226 60.0003 35.8174C60.4739 35.6122 60.9003 35.312 61.2532 34.9355C62.073 33.9729 63.0918 33.1996 64.2394 32.6687C65.3869 32.1379 66.6359 31.8622 67.9003 31.8606C70.2548 31.8635 72.512 32.8001 74.1769 34.465C75.8418 36.1298 76.7784 38.3871 76.7813 40.7416C76.7813 48.3758 64.7157 57.5969 58.5001 61.5383C52.2844 57.5969 40.2188 48.3758 40.2188 40.7416C40.2217 38.3871 41.1583 36.1298 42.8232 34.465C44.4881 32.8001 46.7453 31.8635 49.0998 31.8606Z" fill="black"/>
</svg>
