<svg width="12" height="14" viewBox="0 0 12 14" fill="none" xmlns="http://www.w3.org/2000/svg">
<path fill-rule="evenodd" clip-rule="evenodd" d="M6 0C5.40857 0 4.42029 0.221328 3.49029 0.467713C2.53886 0.718273 1.57972 1.01477 1.01572 1.19434C0.779911 1.27022 0.570853 1.40937 0.412562 1.59582C0.25427 1.78227 0.153165 2.00844 0.120862 2.24836C-0.389995 5.98756 0.795432 8.75876 2.23372 10.592C2.84364 11.3762 3.57088 12.0669 4.39114 12.6408C4.722 12.8688 5.02886 13.0433 5.28943 13.1628C5.52943 13.273 5.78743 13.3632 6 13.3632C6.21257 13.3632 6.46971 13.273 6.71057 13.1628C7.0247 13.014 7.32522 12.8394 7.60886 12.6408C8.42913 12.0669 9.15638 11.3763 9.76628 10.592C11.2046 8.75876 12.39 5.98756 11.8791 2.24836C11.8469 2.00833 11.7458 1.78202 11.5875 1.59543C11.4292 1.40884 11.2202 1.26953 10.9843 1.1935C10.1655 0.931929 9.34045 0.68965 8.50971 0.466878C7.57971 0.222164 6.59143 0 6 0ZM6 4.17601C6.30363 4.17557 6.59763 4.27985 6.82992 4.47038C7.0622 4.66092 7.21779 4.92541 7.26912 5.21701C7.32045 5.50862 7.26422 5.80851 7.11037 6.06358C6.95652 6.31865 6.715 6.51244 6.42857 6.61062L6.75857 8.27267C6.77058 8.33312 6.76872 8.39541 6.75312 8.45508C6.73752 8.51475 6.70858 8.57032 6.66836 8.61781C6.62814 8.6653 6.57764 8.70354 6.52048 8.72978C6.46332 8.75603 6.4009 8.76963 6.33771 8.76962H5.66229C5.59917 8.76951 5.53685 8.75581 5.4798 8.72952C5.42274 8.70322 5.37235 8.66496 5.33222 8.61749C5.2921 8.57001 5.26323 8.51449 5.24768 8.45488C5.23214 8.39527 5.23029 8.33305 5.24229 8.27267L5.57143 6.61062C5.285 6.51244 5.04348 6.31865 4.88963 6.06358C4.73578 5.80851 4.67955 5.50862 4.73088 5.21701C4.78221 4.92541 4.9378 4.66092 5.17008 4.47038C5.40237 4.27985 5.69637 4.17557 6 4.17601Z" fill="#EDEDED"/>
</svg>
