<svg width="120" height="120" viewBox="0 0 120 120" fill="none" xmlns="http://www.w3.org/2000/svg">
<path fill-rule="evenodd" clip-rule="evenodd" d="M15.3725 70.5984L6.89657 82.3113C4.90814 85.0591 1.41056 82.3354 2.99235 79.845L11.9188 65.7909L15.3725 70.5986V70.5984Z" fill="#FDB0A0"/>
<path fill-rule="evenodd" clip-rule="evenodd" d="M15.3724 70.5984L6.8965 82.3113C6.41462 82.9772 5.84392 83.321 5.27861 83.4255C4.54759 82.728 4.2422 81.5711 4.9479 80.4602L13.1639 67.5244L15.3724 70.5987V70.5984Z" fill="#FFCEC0"/>
<path fill-rule="evenodd" clip-rule="evenodd" d="M10.2085 80.4891L22.7896 81.8632L29.9085 92.0506L31.6855 108.947H25.8737L23.8756 93.9293L18.466 88.613L15.9751 95.2006L13.1399 109.185L7.47314 109.14L9.84549 94.5649L9.43674 88.2082L10.2085 80.4891Z" fill="#D19458"/>
<path fill-rule="evenodd" clip-rule="evenodd" d="M22.7894 81.8632L29.9083 92.0506L31.6854 108.947H28.0636L26.0979 94.1721L19.9797 88.1297C19.7601 87.9127 19.47 87.8288 19.1683 87.8946C18.8667 87.9605 18.6382 88.1578 18.529 88.4466L18.4659 88.6132L15.975 95.2008L13.1397 109.186L9.73193 109.158L12.0677 94.8077L11.659 88.451L12.4308 80.7321L22.7894 81.8634V81.8632Z" fill="#E6B17C"/>
<path fill-rule="evenodd" clip-rule="evenodd" d="M25.4353 107.914H31.1635C32.4176 107.914 33.4913 108.591 34.032 109.723L34.6357 110.987C34.7742 111.277 34.7557 111.592 34.5844 111.863C34.4131 112.135 34.137 112.287 33.8159 112.287H25.4353C25.0781 112.287 24.7856 111.995 24.7856 111.637V108.564C24.7856 108.206 25.0779 107.914 25.4353 107.914Z" fill="#909CD1"/>
<path fill-rule="evenodd" clip-rule="evenodd" d="M34.2495 110.178L34.6357 110.987C34.7742 111.277 34.7557 111.592 34.5844 111.863C34.4131 112.135 34.137 112.287 33.8161 112.287H25.4356C25.0781 112.287 24.7856 111.995 24.7856 111.637V110.178H34.2495Z" fill="#7986BF"/>
<path fill-rule="evenodd" clip-rule="evenodd" d="M7.70021 107.914H13.4283C14.6825 107.914 15.7562 108.591 16.2969 109.723L16.9006 110.987C17.0391 111.277 17.0206 111.592 16.8493 111.863C16.6779 112.135 16.4021 112.287 16.0808 112.287H7.70021C7.34279 112.287 7.05029 111.995 7.05029 111.637V108.564C7.05029 108.206 7.34279 107.914 7.70021 107.914Z" fill="#909CD1"/>
<path fill-rule="evenodd" clip-rule="evenodd" d="M24.3826 83.1234C24.9158 80.4232 26.5203 71.1663 25.5005 65.6782C24.3966 59.7372 15.7133 58.7927 13.2802 62.6018C12.2851 64.1208 11.5229 66.9717 10.9367 70.0915C10.1717 74.1637 9.70646 78.6944 9.4149 81.3201C9.38748 81.5672 9.56514 81.7917 9.81217 81.8215L23.8765 83.5219C24.1283 83.5523 24.3333 83.3719 24.3826 83.1232V83.1234Z" fill="#2A93FC"/>
<path fill-rule="evenodd" clip-rule="evenodd" d="M24.3825 83.1234C24.9157 80.4232 26.5203 71.1663 25.5005 65.6782C25.0318 63.1551 23.1959 61.5339 21.0523 60.7945C19.0334 60.8266 17.1474 61.5883 16.2031 63.0668C15.2079 64.5857 14.4457 67.4367 13.8596 70.5564C13.0946 74.6287 12.5679 79.4936 12.2764 82.1196L23.8763 83.5218C24.128 83.5523 24.3331 83.3716 24.3823 83.1232L24.3825 83.1234Z" fill="#4EB1FC"/>
<path d="M20.8823 59.1708C23.8916 59.1708 26.3311 56.528 26.3311 53.268C26.3311 50.008 23.8916 47.3653 20.8823 47.3653C17.8731 47.3653 15.4336 50.008 15.4336 53.268C15.4336 56.528 17.8731 59.1708 20.8823 59.1708Z" fill="#FDB0A0"/>
<path fill-rule="evenodd" clip-rule="evenodd" d="M22.3105 47.5706C24.6268 48.2505 26.331 50.5434 26.331 53.268C26.331 55.9926 24.6268 58.2855 22.3105 58.9655C19.9942 58.2855 18.29 55.9926 18.29 53.268C18.29 50.5434 19.9942 48.2505 22.3105 47.5706Z" fill="#FFCEC0"/>
<path fill-rule="evenodd" clip-rule="evenodd" d="M16.5141 110.178L16.9004 110.987C17.0387 111.277 17.0204 111.592 16.849 111.863C16.6777 112.135 16.4019 112.287 16.0805 112.287H7.70021C7.34279 112.287 7.05029 111.995 7.05029 111.637V110.178H16.5141Z" fill="#7986BF"/>
<path fill-rule="evenodd" clip-rule="evenodd" d="M79.292 66.5334C79.292 68.9946 81.306 71.0088 83.7674 71.0088H100.246C102.708 71.0088 104.722 68.9948 104.722 66.5334V57.7221C104.722 45.4052 117.437 41.9454 117.437 25.3927C117.437 10.2054 104.722 2.61188 92.0068 2.61188C79.292 2.61188 66.5771 10.2054 66.5771 25.3927C66.5771 41.9452 79.292 45.4052 79.292 57.7221V66.5334Z" fill="#FCDB35"/>
<path fill-rule="evenodd" clip-rule="evenodd" d="M79.292 66.5335C79.292 68.9946 81.306 71.0089 83.7674 71.0089H95.1925C97.6539 71.0089 99.6678 68.9951 99.6678 66.5337V56.5674C99.6678 44.2505 112.383 40.7906 112.383 24.2379C112.383 12.8974 105.293 5.7919 96.4072 2.91963C94.9536 2.71573 93.4804 2.61237 92.0068 2.61237C79.292 2.61237 66.5771 10.2059 66.5771 25.3929C66.5771 41.9457 79.2922 45.4055 79.2922 57.7224V66.5337L79.292 66.5335Z" fill="#FFEB87"/>
<path fill-rule="evenodd" clip-rule="evenodd" d="M21.936 66.082L27.673 71.6482L39.0109 75.9759C42.1799 77.1856 40.4542 81.2688 37.6391 80.3855L23.923 76.2288L17.7643 70.4548C17.1282 69.8583 16.805 69.1055 16.8111 68.2336C16.8219 66.6197 18.099 65.3018 19.704 65.2322C20.5056 65.1975 21.317 65.4816 21.936 66.082Z" fill="#FDB0A0"/>
<path fill-rule="evenodd" clip-rule="evenodd" d="M21.9357 66.082L27.6728 71.6482L39.0107 75.9759C40.2233 76.4388 40.7185 77.3224 40.711 78.1875C40.1574 78.7901 39.2858 79.1149 38.2733 78.7971L25.5929 74.9543L19.4342 69.1802C18.7982 68.5838 18.4749 67.8309 18.481 66.9591C18.485 66.372 18.6566 65.8242 18.9505 65.3613C19.1903 65.288 19.4427 65.2434 19.704 65.232C20.5056 65.1973 21.3167 65.4816 21.9357 66.082Z" fill="#FFCEC0"/>
<path fill-rule="evenodd" clip-rule="evenodd" d="M95.1347 11.6777C94.2307 10.8133 92.9318 10.5019 91.7341 10.8626C90.5365 11.223 89.6254 12.1999 89.3489 13.4198C88.5131 11.9388 86.7808 11.2113 85.1383 11.6515C83.4958 12.0916 82.3593 13.5876 82.3762 15.288C79.7491 15.1582 77.2073 16.2398 75.4795 18.2231C73.7517 20.2064 73.0284 22.8724 73.5171 25.4569C72.783 26.6859 72.8707 28.238 73.7383 29.3763C74.6062 30.5147 76.0795 31.0106 77.459 30.6283C77.7698 30.5423 78.0618 30.4155 78.3293 30.2545C79.6401 30.9 80.0013 31.834 80.3411 32.7021C81.4842 35.6205 85.0237 35.8333 86.246 33.2576C87.5866 34.4053 89.3707 34.804 91.0242 34.4058C91.7995 34.9966 92.703 35.3107 93.6129 35.3599C94.5464 35.4105 95.4862 35.1825 96.3009 34.6891C96.8634 36.6007 98.5448 37.9683 100.531 38.1295C101.655 38.2207 102.746 37.9146 103.637 37.3059C104.32 36.8395 104.886 36.1955 105.26 35.4164C106.722 35.3353 108.13 34.6413 109.085 33.4195C110.644 31.4259 110.547 28.6012 108.856 26.7187C109.207 26.5209 109.533 26.2706 109.821 25.9711C110.913 24.8353 111.277 23.1834 110.762 21.6942C110.248 20.205 108.942 19.1297 107.382 18.9103C107.363 18.0394 107.143 17.1729 106.723 16.3823C105.883 14.8015 104.343 13.7128 102.573 13.4484C102.179 12.3391 101.361 11.3991 100.255 10.867C98.546 10.0448 96.5062 10.3678 95.1349 11.6777H95.1347Z" fill="#FF6B72"/>
<path fill-rule="evenodd" clip-rule="evenodd" d="M98.8077 64.4946H85.2056V73.4192C85.2056 75.3026 86.7473 76.8443 88.6307 76.8443H95.3826C97.266 76.8443 98.8077 75.3031 98.8077 73.4192V64.4946Z" fill="#495586"/>
<path fill-rule="evenodd" clip-rule="evenodd" d="M93.7539 64.4946H85.2056V73.4192C85.2056 75.3026 86.7473 76.8443 88.6307 76.8443H91.5588C92.8396 76.3474 93.7542 75.1001 93.7542 73.6491V64.4946H93.7539Z" fill="#5D689E"/>
<path fill-rule="evenodd" clip-rule="evenodd" d="M79.2917 66.5334C79.2917 68.9948 81.3057 71.0088 83.7669 71.0088H100.246C102.707 71.0088 104.721 68.9948 104.721 66.5334V58.136H79.2915V66.5334H79.2917Z" fill="#5D689E"/>
<path fill-rule="evenodd" clip-rule="evenodd" d="M79.2917 66.5334C79.2917 68.9927 81.3024 71.0055 83.7613 71.0086H95.192C97.6534 71.0086 99.6674 68.9948 99.6674 66.5334V58.136H79.2915V66.5334H79.2917Z" fill="#7986BF"/>
<path d="M79.292 58.136H104.722V64.5724H79.292V58.136Z" fill="#7986BF"/>
<path d="M79.292 58.136H99.6678V64.5724H79.292V58.136Z" fill="#909CD1"/>
<path fill-rule="evenodd" clip-rule="evenodd" d="M27.66 37.8795L29.9198 34.9055C30.1842 34.5539 30.5998 34.3495 31.0401 34.3495C31.4782 34.3495 31.8928 34.5539 32.1581 34.9055L34.4191 37.8771C34.8879 38.4961 34.7681 39.3792 34.1503 39.8482C33.8951 40.0427 33.5969 40.1362 33.2988 40.1362C32.9951 40.1362 32.6946 40.0357 32.4462 39.8435V47.5312C32.4462 48.3096 31.8159 48.9373 31.0401 48.9373C30.2644 48.9373 29.633 48.3096 29.633 47.5312V39.8463C29.1417 40.2213 28.4426 40.2398 27.9276 39.8487C27.311 39.3797 27.1889 38.4963 27.66 37.8795ZM7.44538 37.8795L9.70522 34.9055C9.96959 34.5539 10.384 34.3495 10.8255 34.3495C11.2638 34.3495 11.6782 34.5539 11.9426 34.9055L14.2048 37.8771C14.6735 38.4961 14.5549 39.3792 13.9348 39.8482C13.6795 40.0427 13.3826 40.1362 13.0844 40.1362C12.7795 40.1362 12.4802 40.0357 12.2318 39.8435V47.5312C12.2318 48.3096 11.6015 48.9373 10.8258 48.9373C10.05 48.9373 9.41858 48.3096 9.41858 47.5312V39.8463C8.92733 40.2213 8.22819 40.2398 7.71327 39.8487C7.09663 39.3797 6.97452 38.4966 7.44561 37.8797L7.44538 37.8795ZM17.5509 32.3859L19.8108 29.4117C20.0784 29.0623 20.493 28.8562 20.9311 28.8562C21.3715 28.8562 21.7837 29.0623 22.0514 29.4117L24.3112 32.3859C24.7823 33.0044 24.6602 33.8859 24.0412 34.3568C23.5251 34.7484 22.8272 34.7273 22.3371 34.3523V42.0396C22.3371 42.8156 21.7069 43.4461 20.9311 43.4461C20.1553 43.4461 19.5251 42.8156 19.5251 42.0396V34.3523C19.2766 34.542 18.9738 34.643 18.6701 34.643C18.374 34.643 18.0738 34.549 17.8207 34.3568C17.2017 33.8862 17.0833 33.0047 17.5509 32.3859ZM4.4128 81.9073C4.33475 81.8529 3.67639 81.3752 4.16647 80.6041L8.99225 73.0078C8.7335 74.7143 8.52584 76.3924 8.34959 77.8903L5.74311 81.4924C5.2167 82.2239 4.72897 82.1205 4.4128 81.9073ZM19.6233 61.8401C20.5324 62.018 23.5399 62.8336 24.1115 65.9156C24.1376 66.0471 24.1589 66.1828 24.1828 66.3216L22.9022 65.0791C22.0303 64.2351 20.8399 63.7809 19.6282 63.8346C17.269 63.9352 15.4078 65.8666 15.3907 68.2291C15.3839 69.495 15.8674 70.6221 16.7899 71.4872L22.9472 77.2619C23.1063 77.4098 23.2938 77.5174 23.5029 77.5805L23.8394 77.6838C23.599 79.5005 23.3358 81.0382 23.1539 82.0317L10.882 80.5481C11.1769 77.8765 11.6149 73.92 12.288 70.3413C13.0978 66.0262 13.8996 64.1585 14.4396 63.3356C15.2763 62.0231 17.4087 61.4067 19.6235 61.8405L19.6233 61.8401ZM20.8678 48.7221C23.104 48.7221 24.9199 50.7422 24.9199 53.2289C24.9199 55.7156 23.104 57.7336 20.8678 57.7336C18.6316 57.7336 16.8155 55.713 16.8155 53.2289C16.8155 50.7448 18.6337 48.7221 20.8678 48.7221ZM38.4951 77.2945L27.1584 72.9682C26.9801 72.9002 26.8162 72.7969 26.6808 72.6637L20.9435 67.0971C20.6217 66.7852 20.197 66.626 19.7519 66.6424C18.8901 66.6799 18.2102 67.3854 18.2025 68.2505C18.2001 68.7309 18.3628 69.1059 18.7118 69.4364L24.6321 74.9841L38.0332 79.0458C38.9175 79.3247 39.21 78.5632 39.2405 78.4762C39.3647 78.1153 39.3365 77.6182 38.4951 77.2945ZM30.0201 106.564H26.9618L25.2621 93.776C25.2204 93.4641 25.0769 93.176 24.8522 92.958L19.4334 87.6307C19.0957 87.2979 18.6112 87.1596 18.1469 87.2604C17.6829 87.3637 17.3011 87.694 17.1316 88.1369L14.6379 94.7367C14.6098 94.8073 14.5882 94.8797 14.5746 94.9545L12.221 106.563H9.2892L11.2001 94.8234C11.216 94.718 11.2226 94.6127 11.216 94.507L10.8129 88.2534L11.2962 83.4302L23.1558 84.8644L28.5508 92.5849L30.0201 106.563V106.564ZM26.186 110.944V109.376H31.1688C31.8813 109.376 32.4654 109.744 32.7715 110.388L33.0391 110.944H26.186ZM8.41756 110.944V109.376H13.4004C14.1131 109.376 14.6993 109.744 15.0063 110.388L15.2705 110.944H8.41733H8.41756ZM8.02217 83.1422L8.42319 82.5867C8.46045 82.6312 8.50006 82.6734 8.54178 82.7133L8.00295 88.0901C7.99616 88.1651 7.99381 88.2424 8.00061 88.3195L8.39928 94.5281L6.3642 107.028C5.90225 107.405 5.6053 107.979 5.6053 108.621V111.699C5.6053 112.833 6.5292 113.756 7.66311 113.756H16.0589C16.8595 113.756 17.5915 113.354 18.0183 112.676C18.4439 111.999 18.4938 111.164 18.1493 110.442L17.5451 109.177C17.0187 108.08 16.1175 107.267 15.0321 106.859L17.3079 95.6252L18.9996 91.1487L22.5368 94.624L24.1823 106.99C23.6923 107.365 23.3737 107.955 23.3737 108.621V111.698C23.3737 112.833 24.2941 113.756 25.428 113.756H33.8238C34.6256 113.756 35.3564 113.353 35.7832 112.676C36.2102 111.998 36.2587 111.164 35.9142 110.442L35.31 109.174C34.8019 108.108 33.9288 107.311 32.8819 106.891L31.3087 91.931C31.2827 91.6941 31.1993 91.4667 31.0636 91.2724L25.7046 83.6037C25.7238 83.5406 25.7407 83.475 25.7543 83.407C25.9066 82.6409 26.2467 80.8219 26.5652 78.5084L37.204 81.7338C37.623 81.8648 38.0283 81.9258 38.4157 81.9258C40.1142 81.9258 41.4244 80.7541 41.8952 79.3971C42.4769 77.7239 41.8399 75.5625 39.4976 74.6674L28.4308 70.4437L27.2259 69.2768C27.1978 67.8047 27.0813 66.5041 26.8769 65.4023C26.4623 63.1617 25.079 61.3078 23.0777 60.1547C25.7826 59.1727 27.7331 56.4396 27.7331 53.2289C27.7331 49.1932 24.6532 45.9096 20.8676 45.9096C17.0819 45.9096 14.0032 49.1932 14.0032 53.2289C14.0032 55.5844 15.0546 57.6841 16.6842 59.025C14.7012 59.3602 13.016 60.3375 12.0764 61.8068C11.5488 62.6133 11.0655 63.7383 10.6183 65.1984L1.79272 79.0969C0.515376 81.1078 1.37483 83.2453 2.83288 84.2341C3.4235 84.6326 4.14069 84.8646 4.88389 84.8646C5.98498 84.8646 7.14256 84.356 8.02241 83.142L8.02217 83.1422ZM83.249 19.0242C83.1769 19.7977 82.4925 20.3648 81.7188 20.2943C80.6754 20.1987 78.8615 20.3648 78.412 22.5867C78.2754 23.2523 77.6904 23.7143 77.0332 23.7143C76.9427 23.7143 76.8492 23.7045 76.7531 23.6859C75.993 23.531 75.5006 22.788 75.6553 22.0263C76.4086 18.3138 79.5323 17.2641 81.9808 17.4937C82.7522 17.5666 83.3215 18.2508 83.249 19.0242ZM109.22 43.275C112.562 38.6154 116.017 33.7943 116.017 25.3594C116.017 10.6737 103.566 3.98414 91.994 3.98414C80.4225 3.98414 67.9699 10.6737 67.9699 25.3594C67.9699 33.7943 71.4246 38.6154 74.7654 43.275C77.643 47.2901 80.3669 51.0937 80.6573 56.6979H87.3771V36.1008C87.0089 35.9766 86.6531 35.8219 86.3053 35.6367C85.5248 36.4406 84.4891 36.9258 83.317 36.9867C83.2357 36.9916 83.1511 36.9937 83.0719 36.9937C81.048 36.9937 79.2513 35.7002 78.4425 33.6375C78.1985 33.0096 78.0089 32.5359 77.5493 32.1544C77.4047 32.2104 77.2568 32.262 77.1044 32.3044C76.6493 32.4284 76.1885 32.4893 75.7357 32.4893C74.1771 32.4893 72.6865 31.7723 71.7073 30.4854C70.552 28.9737 70.3453 26.9838 71.1279 25.2846C70.7088 22.2937 71.5922 19.301 73.5912 17.0065C75.4118 14.9159 77.9369 13.662 80.6554 13.4627C81.131 11.6487 82.545 10.1791 84.4219 9.67523C85.9894 9.2557 87.6112 9.57891 88.8726 10.4719C89.4961 9.71976 90.3375 9.15023 91.3031 8.85937C92.629 8.46094 94.0453 8.63227 95.2242 9.29297C96.9612 8.10445 99.2222 7.96148 101.258 8.94633C102.492 9.5393 103.459 10.5185 104.064 11.688C106.042 12.206 107.71 13.5162 108.677 15.3401C109.046 16.0287 109.292 16.7693 109.423 17.5263C111.095 18.1078 112.418 19.418 113.004 21.1125C113.718 23.1865 113.22 25.4552 111.701 27.0352C111.664 27.0701 111.63 27.1031 111.597 27.138C112.937 29.5266 112.743 32.5406 111.023 34.7435C109.933 36.1359 108.405 37.0076 106.769 37.2891C105.581 39.1237 103.52 40.2422 101.341 40.2422C101.17 40.2422 100.996 40.2352 100.825 40.2209C99.1737 40.0873 97.6875 39.3443 96.611 38.1771V56.6977H103.329C103.619 51.0935 106.345 47.2898 109.221 43.2748L109.22 43.275ZM100.232 69.5695H83.753C82.0612 69.5695 80.6857 68.1935 80.6857 66.5018V65.9459H103.303V66.5018C103.303 68.1935 101.925 69.5695 100.232 69.5695H100.232ZM97.3889 73.4651C97.3889 74.5781 96.4821 75.483 95.3683 75.483H88.6169C87.5034 75.483 86.5987 74.5781 86.5987 73.4651V72.382H97.3889V73.4651ZM90.1891 36.4502C90.3438 36.4383 90.4985 36.4219 90.6534 36.3987C91.6303 36.9961 92.7133 37.3008 93.7987 37.327V56.6979H90.1891V36.4502ZM84.1889 30.525C83.5959 30.0234 83.519 29.1375 84.0206 28.5424C84.5198 27.9495 85.4086 27.8719 86.0015 28.3734C87.3883 29.5409 88.005 31.3924 87.6155 33.15C88.9312 33.8604 90.5405 33.8348 91.8415 33.0471C93.4237 32.0906 94.2042 30.2391 93.7863 28.437C93.3696 26.637 91.8527 25.3172 90.0108 25.1534C89.2371 25.0854 88.6657 24.4036 88.7367 23.6297C88.8044 22.8562 89.4888 22.287 90.2592 22.3526C93.3152 22.6242 95.835 24.8135 96.5273 27.8039C96.5555 27.9192 96.5737 28.0359 96.5951 28.151C97.031 27.9094 97.3948 27.5437 97.6329 27.087C98.088 26.2148 98.0123 25.1768 97.4388 24.3773C96.986 23.7469 97.1294 22.8682 97.7594 22.4156C98.3929 21.9612 99.2695 22.1062 99.7235 22.7367C100.92 24.4036 101.073 26.5664 100.127 28.3875C99.3811 29.8195 98.0451 30.8299 96.4865 31.1672C96.168 32.4068 95.5141 33.5487 94.5813 34.4578C95.3414 34.3172 96.0574 33.9302 96.604 33.3047C97.1121 32.7188 98.0011 32.658 98.5872 33.1666C99.1734 33.6776 99.2355 34.5656 98.7251 35.1513C98.5657 35.3344 98.3997 35.5057 98.2235 35.6648C98.8233 36.6654 99.8623 37.3219 101.053 37.418C101.8 37.4789 102.533 37.3029 103.162 36.9398C102.895 36.8393 102.631 36.7198 102.372 36.5812C101.687 36.2182 101.428 35.3672 101.791 34.6807C102.154 33.9959 103.006 33.7334 103.692 34.0992C105.438 35.0252 107.589 34.5682 108.806 33.0096C109.809 31.7276 109.935 29.9789 109.181 28.575C108.647 28.737 108.089 28.8211 107.526 28.8211C106.964 28.8211 106.391 28.7391 105.833 28.568C105.09 28.3455 104.669 27.5604 104.894 26.8148C105.119 26.0719 105.905 25.6523 106.648 25.8773C107.73 26.2034 108.89 25.9008 109.673 25.0854C110.456 24.2719 110.714 23.1002 110.345 22.0312C110.144 21.4523 109.776 20.9602 109.298 20.6062C109.183 21.0612 109.024 21.5084 108.82 21.9377C108.579 22.4416 108.074 22.7367 107.549 22.7367C107.346 22.7367 107.139 22.6948 106.945 22.6008C106.244 22.2654 105.946 21.4268 106.282 20.7258C106.895 19.4391 106.863 17.9177 106.195 16.6596C105.844 15.9961 105.342 15.4455 104.739 15.0375C104.737 15.0466 104.737 15.0565 104.737 15.0635C104.512 17.6156 102.703 19.7904 100.234 20.4773C98.3855 20.9904 96.419 20.5969 94.9148 19.4974C93.8906 20.5312 92.4539 21.1617 90.9021 21.1948C90.858 21.1948 90.8151 21.1969 90.7711 21.1969C88.6807 21.1969 86.9018 20.1166 85.9961 18.2883C85.6516 17.5922 85.9352 16.7482 86.632 16.4062C87.3276 16.0591 88.1714 16.3453 88.5159 17.0416C89.1326 18.2836 90.3487 18.3916 90.8412 18.3818C91.9919 18.3584 93.0096 17.7232 93.4331 16.7693C93.6375 16.3102 94.069 15.9937 94.567 15.9394C95.0672 15.8883 95.5563 16.1013 95.8544 16.5068C96.679 17.6344 98.1347 18.1404 99.4798 17.7654C100.825 17.3927 101.812 16.2068 101.936 14.8148C102.058 13.4269 101.297 12.0867 100.038 11.4771C99.0935 11.0227 98.0782 10.9945 97.2415 11.374C97.8005 12.4547 97.9608 13.7201 97.6547 14.9318C97.4627 15.6865 96.6982 16.1409 95.9461 15.9513C95.194 15.7615 94.7365 14.9977 94.9263 14.2427C95.1239 13.4646 94.8867 12.6352 94.3052 12.0799C93.7223 11.5219 92.8833 11.3229 92.1143 11.5523C91.3429 11.7844 90.7544 12.4174 90.5761 13.2C90.4474 13.7674 89.9831 14.1961 89.4094 14.2802C88.8323 14.3646 88.2654 14.0883 87.9797 13.5818C87.4195 12.5857 86.254 12.0961 85.1505 12.3912C84.0471 12.6891 83.2826 13.6922 83.295 14.8357C83.2994 15.2227 83.1424 15.5953 82.8635 15.8648C82.5846 16.1318 82.2063 16.2773 81.8177 16.2537C79.4765 16.1412 77.2528 17.0857 75.7125 18.8529C74.1731 20.6203 73.5372 22.957 73.9732 25.2609C74.0386 25.5984 73.9755 25.9479 73.8005 26.243C73.3216 27.0424 73.3781 28.0406 73.9427 28.7812C74.5073 29.5216 75.4549 29.8427 76.3528 29.5922C77.2528 29.3437 77.8987 28.5841 78.0028 27.656C78.0886 26.8852 78.7854 26.3297 79.5569 26.4141C80.3271 26.5005 80.8851 27.1966 80.7994 27.9677C80.6955 28.8888 80.351 29.7352 79.8258 30.4427C80.4989 31.1742 80.8106 31.9687 81.059 32.5992C81.5367 33.8227 82.4651 34.2211 83.1731 34.1789C83.9796 34.1365 84.5904 33.5789 84.8491 32.6459C85.0615 31.8727 84.8039 31.0404 84.1896 30.5248L84.1889 30.525ZM80.6854 59.5102H103.302V63.1334H80.6854V59.5102ZM110.352 7.17422C105.491 3.30305 98.9735 1.17188 91.9938 1.17188C85.0141 1.17188 78.4933 3.30305 73.6348 7.17422C68.0873 11.5898 65.1576 17.8781 65.1576 25.3594C65.1576 34.6992 69.0483 40.1252 72.4793 44.9156C75.3738 48.9513 77.872 52.4367 77.872 57.6891V66.5018C77.872 69.7451 80.5092 72.382 83.7527 72.382H83.7855V73.4651C83.7855 76.1297 85.954 78.2953 88.6169 78.2953H90.5876V87.6841H66.1355C65.3594 87.6841 64.7283 88.3146 64.7283 89.0906V101.355H39.8662C39.0902 101.355 38.4602 101.986 38.4602 102.762V116.016H6.431C5.65288 116.016 5.02381 116.646 5.02381 117.422C5.02381 118.197 5.65288 118.828 6.431 118.828H39.8662C40.6444 118.828 41.2723 118.198 41.2723 117.422V104.168H66.1355C66.9124 104.168 67.5415 103.54 67.5415 102.762V90.4973H91.9936C92.7696 90.4973 93.3996 89.8669 93.3996 89.0909V78.2955H95.3681C98.0334 78.2955 100.201 76.1299 100.201 73.4653V72.3823H100.231C103.476 72.3823 106.114 69.7453 106.114 66.502V57.6893C106.114 52.437 108.614 48.9516 111.507 44.9159C114.939 40.1252 118.83 34.6995 118.83 25.3596C118.83 17.8784 115.898 11.5901 110.351 7.17445L110.352 7.17422Z" fill="#021047"/>
</svg>
