<svg width="117" height="117" viewBox="0 0 117 117" fill="none" xmlns="http://www.w3.org/2000/svg">
<mask id="mask0_1833_18" style="mask-type:luminance" maskUnits="userSpaceOnUse" x="0" y="0" width="117" height="117">
<path d="M0 7.62939e-06H117V117H0V7.62939e-06Z" fill="white"/>
</mask>
<g mask="url(#mask0_1833_18)">
<path d="M92.4346 27.6501H67.6658L61.7216 20.5173C58.2482 16.3494 53.1031 13.9397 47.6777 13.9397H29.5487C25.7318 13.9397 22.0872 15.5308 19.4926 18.3304L14.5098 23.7064C12.1602 26.2413 10.855 29.5701 10.8547 33.0264L10.8545 52.7869H106.146V41.3611C106.146 33.7888 100.007 27.6501 92.4346 27.6501Z" fill="#FFB357"/>
<path d="M24.6426 34.5056C20.8565 34.5056 17.7871 37.575 17.7871 41.3611V51.2604H38.2767V34.5056H24.6426Z" fill="#D4D4FF"/>
<path d="M92.4346 34.5056H38.2769C34.4908 34.5056 31.4214 37.575 31.4214 41.3611V51.2604H99.2901V41.3611C99.2901 37.575 96.2206 34.5056 92.4346 34.5056Z" fill="#EFEDFF"/>
<path d="M106.146 48.2166H10.855L22.0033 103.06H94.9967C101.491 103.06 107.095 98.5039 108.419 92.1457L114.913 60.975C115.161 59.7852 115.286 58.5727 115.286 57.3572C115.286 52.309 111.194 48.2166 106.146 48.2166Z" fill="#FFCE71"/>
<path d="M29.1472 92.1458L27.4934 84.2071H26.8707C25.9955 84.2071 25.2862 83.4976 25.2862 82.6226C25.2862 81.7604 25.9758 81.06 26.8334 81.0401L22.6532 60.9751C22.4053 59.785 22.2803 58.5727 22.2803 57.3572C22.2803 52.3091 26.373 48.2166 31.4214 48.2166H10.855C5.80658 48.2166 1.71387 52.3091 1.71387 57.3572C1.71387 58.5727 1.83887 59.785 2.08681 60.9751L8.58053 92.1458C9.90524 98.5038 15.5087 103.06 22.0033 103.06H24.5654H42.5697C36.0751 103.06 30.4716 98.5038 29.1472 92.1458Z" fill="#FFB357"/>
<path d="M19.5011 41.3611C19.5011 38.5261 21.8077 36.2195 24.6427 36.2195H92.4346C95.2695 36.2195 97.5762 38.5261 97.5762 41.3611V46.5027H19.5011V41.3611ZM106.146 46.5027H101.004V41.3611C101.004 36.6358 97.1598 32.7917 92.4346 32.7917H24.6427C19.9174 32.7917 16.0733 36.6358 16.0733 41.3611V46.5027H12.5684V33.0273C12.5684 29.9927 13.7041 27.0974 15.7676 24.8716L20.7492 19.4947C23.0138 17.0541 26.2197 15.6533 29.5494 15.6533H47.6775C52.6089 15.6533 57.2477 17.8265 60.4058 21.6153L66.3495 28.7472C66.6761 29.1403 67.1562 29.3642 67.6655 29.3642H92.4346C98.9941 29.3642 104.432 34.6667 104.432 41.3613C104.432 42.3074 105.202 43.0752 106.146 43.0752C107.089 43.0752 107.859 42.3074 107.859 41.3613C107.859 39.2773 107.45 37.2595 106.646 35.3559C104.26 29.7198 98.7242 25.9365 92.4346 25.9365H68.4678L63.0381 19.419C59.3437 14.987 53.7704 12.2256 47.6775 12.2256H29.5494C25.3773 12.2256 21.2472 13.9205 18.2355 17.1636L13.2539 22.5408C11.9377 23.9598 10.9116 25.5937 10.2055 27.3944C9.49916 29.1974 9.14062 31.0918 9.14062 33.0273V46.6396C3.96703 47.4638 0 51.9398 0 57.3572C0 58.6871 0.137565 60.0221 0.408813 61.3244L4.86921 82.7345C5.06231 83.6614 5.97066 84.2564 6.8966 84.0629C7.82323 83.8698 8.41806 82.9621 8.22496 82.0355L3.76479 60.6256C3.54108 59.5523 3.42773 58.4529 3.42773 57.3572C3.42773 53.2631 6.75766 49.9322 10.8517 49.9307H10.8545C10.8559 49.9307 10.8575 49.9304 10.8591 49.9304H106.141C106.143 49.9304 106.144 49.9307 106.146 49.9307C106.146 49.9307 106.147 49.9304 106.148 49.9304C109.859 49.932 113.561 52.722 113.573 57.8019C113.573 59.1405 113.392 60.0059 110.365 74.4588C109.443 78.8596 108.26 84.5076 106.742 91.7963C105.589 97.33 100.649 101.346 94.9967 101.346H22.0033C16.3507 101.346 11.4114 97.33 10.2585 91.7963L9.62302 88.7468C9.42992 87.8201 8.52317 87.2265 7.59563 87.4184C6.669 87.6117 6.07417 88.5192 6.26727 89.4458L6.90254 92.4953C8.38492 99.6102 14.7356 104.774 22.0033 104.774H94.9967C102.264 104.774 108.615 99.6102 110.097 92.4953C111.615 85.2084 112.798 79.5611 113.72 75.1615C116.939 59.7895 117 59.6035 117 57.8019C116.983 50.8395 111.756 46.5027 106.146 46.5027Z" fill="black"/>
<path d="M26.8509 88.664H24.2998C23.2831 88.664 22.473 89.5495 22.5994 90.592C22.7045 91.4618 23.4886 92.0916 24.3649 92.0916H26.7714C29.0008 92.0916 30.9338 90.428 31.1365 88.2075C31.3687 85.6657 29.3651 83.5224 26.8701 83.5224C26.3073 83.5224 25.8699 82.9774 26.0568 82.3879C26.1695 82.0341 26.5178 81.8086 26.8889 81.8086H28.0698C29.0865 81.8086 29.8966 80.9233 29.7707 79.8808C29.6656 79.0109 28.8818 78.3808 28.0056 78.3808H26.9693C24.7395 78.3808 22.8069 80.0447 22.6042 82.2652C22.3725 84.8072 24.3759 86.9502 26.8706 86.9502C27.4339 86.9502 27.8717 87.4966 27.6834 88.0857C27.5703 88.4392 27.2218 88.664 26.8509 88.664Z" fill="black"/>
<path d="M33.5918 80.0943V90.5591C33.5918 91.4055 34.2778 92.0916 35.124 92.0916H40.5618C41.785 92.0916 42.7087 90.8107 42.0642 89.5164C41.8001 88.9853 41.242 88.664 40.649 88.664H37.0195V87.0644H39.1904C40.2073 87.0644 41.017 86.1792 40.8913 85.1367C40.7859 84.2667 40.0023 83.6367 39.1262 83.6367H37.0195V81.8086H40.5618C41.5786 81.8086 42.3883 80.9233 42.2624 79.8808C42.1575 79.0109 41.3739 78.3808 40.4973 78.3808H35.3052C34.3589 78.3808 33.5918 79.148 33.5918 80.0943Z" fill="black"/>
<path d="M46.4552 80.3935C43.7825 83.0662 43.7825 87.4151 46.4552 90.0874C49.1273 92.7594 53.4768 92.7599 56.1491 90.0872C56.8184 89.4181 56.8184 88.3328 56.1491 87.6637C55.48 86.9944 54.3948 86.9944 53.7257 87.6635C52.3898 89.0001 50.215 88.9997 48.8789 87.6637C47.5427 86.3272 47.5427 84.1531 48.8789 82.8167C50.2148 81.4801 52.3895 81.4803 53.7257 82.8167C54.3945 83.4856 55.4798 83.486 56.1491 82.8165C56.8184 82.1472 56.8184 81.0624 56.1491 80.3933C53.4768 77.7206 49.1277 77.7203 46.4552 80.3935Z" fill="black"/>
<path d="M64.2419 85.2363H62.6133V81.8086H64.2419C65.1708 81.8086 65.927 82.5771 65.927 83.5224C65.927 84.4678 65.1708 85.2363 64.2419 85.2363ZM64.2419 78.3808H61.0137C60.0041 78.3808 59.1855 79.1994 59.1855 80.209V90.3779C59.1855 91.7817 60.8727 92.7906 62.3286 91.4894C62.5155 91.3226 62.6133 91.0772 62.6133 90.8265V88.664H63.5276L66.424 91.5847C67.0883 92.2554 68.1733 92.2627 68.8479 91.595C69.5199 90.9286 69.5243 89.8432 68.8582 89.1711L67.3223 87.6227C68.5563 86.683 69.3552 85.195 69.3552 83.5224C69.3552 80.6875 67.0613 78.3808 64.2419 78.3808Z" fill="black"/>
<path d="M79.4094 81.8086C80.4263 81.8086 81.2359 80.9233 81.11 79.8808C81.0051 79.0109 80.2216 78.3808 79.345 78.3808H74.1529C73.2066 78.3808 72.4395 79.148 72.4395 80.0943V90.5591C72.4395 91.4055 73.1255 92.0916 73.9717 92.0916H79.4094C80.6327 92.0916 81.5563 90.8107 80.9119 89.5164C80.6477 88.9853 80.0897 88.664 79.4967 88.664H75.8672V87.0644H78.0381C79.055 87.0644 79.8646 86.1792 79.7389 85.1367C79.6336 84.2667 78.85 83.6367 77.9739 83.6367H75.8672V81.8086H79.4094Z" fill="black"/>
<path d="M88.9936 92.0786C89.8634 91.9726 90.4925 91.1888 90.4925 90.3126V81.8087H92.598C93.4744 81.8087 94.2584 81.1793 94.3642 80.3094C94.491 79.2669 93.6805 78.3809 92.6634 78.3809H84.8938C83.8765 78.3809 83.0662 79.2669 83.1928 80.3094C83.2986 81.1793 84.0826 81.8087 84.9589 81.8087H87.0647V90.378C87.0647 91.3956 87.9511 92.2057 88.9936 92.0786Z" fill="black"/>
<path d="M48.3311 60.0996H40.5616C39.5445 60.0996 38.7339 60.9855 38.8608 62.028C38.9666 62.898 39.7504 63.5273 40.6267 63.5273H42.7325V72.0967C42.7325 73.1142 43.6191 73.9243 44.6614 73.7973C45.5311 73.6915 46.1602 72.9077 46.1602 72.0315V63.5273H48.266C49.1424 63.5273 49.9262 62.898 50.032 62.028C50.1588 60.9855 49.3483 60.0996 48.3311 60.0996Z" fill="black"/>
<path d="M58.212 70.383C56.3222 70.383 54.7849 68.8453 54.7849 66.9555C54.7849 65.0659 56.3222 63.5285 58.212 63.5285C60.1018 63.5285 61.6393 65.0659 61.6393 66.9555C61.6393 68.8453 60.1018 70.383 58.212 70.383ZM58.212 60.1012C54.4326 60.1012 51.3574 63.1761 51.3574 66.9555C51.3574 70.7354 54.4326 73.8103 58.212 73.8103C61.9916 73.8103 65.0668 70.7354 65.0668 66.9555C65.0668 63.1761 61.9916 60.1012 58.212 60.1012Z" fill="black"/>
<path d="M72.9255 66.9551H71.2969V63.5273H72.9255C73.8544 63.5273 74.6106 64.2958 74.6106 65.2412C74.6106 66.1866 73.8544 66.9551 72.9255 66.9551ZM72.9255 60.0996H69.429C68.5677 60.0996 67.8691 60.7982 67.8691 61.6595V72.0967C67.8691 73.316 69.1417 74.2372 70.4306 73.6058C70.9722 73.3405 71.2969 72.7692 71.2969 72.1661V70.3828H72.9255C75.7449 70.3828 78.0388 68.0762 78.0388 65.2412C78.0388 62.4062 75.7449 60.0996 72.9255 60.0996Z" fill="black"/>
</g>
</svg>
